<mxfile host="Electron" modified="2023-04-13T13:38:56.996Z" agent="Mozilla/5.0 (Macintosh; Intel Mac OS X 10_15_7) AppleWebKit/537.36 (KHTML, like Gecko) draw.io/21.1.2 Chrome/106.0.5249.199 Electron/21.4.3 Safari/537.36" etag="TiMzG1KfSkfnxAJVgHcG" version="21.1.2" type="device">
  <diagram name="第 1 页" id="kYC9AKJTYJXFQ5gGIg_3">
    <mxGraphModel dx="817" dy="663" grid="0" gridSize="10" guides="1" tooltips="1" connect="1" arrows="1" fold="1" page="0" pageScale="1" pageWidth="827" pageHeight="1169" math="0" shadow="0">
      <root>
        <mxCell id="0" />
        <mxCell id="1" parent="0" />
        <mxCell id="JLISBTitv6Jo-ShoZzgz-1" value="" style="shape=image;verticalLabelPosition=bottom;labelBackgroundColor=default;verticalAlign=top;aspect=fixed;imageAspect=0;image=data:image/png,iVBORw0KGgoAAAANSUhEUgAAAggAAAB5CAYAAABcHdkuAAAAAXNSR0IArs4c6QAAIABJREFUeF7svQecHWd1xv2fctv2Xa2k3VUvtiQ3uWC590IzkIQkhA6h84WEhCQQasB0SPJBCi3BEEgg8FFCNVi23G1ZLnKTbfW20vZ++5Tvd847s7uSJa1irYTtnZtgrVb3zp1558x5n3POc55jhWEYkrySFUhWIFmBZAWSFUhWIFmBSStgJQAhsYdkBZIVSFYgWYFkBZIVOHgFEoCQ2ESyAskKJCuQrECyAskKPG0FEoCQGEWyAskKJCuQrECyAskKJAAhsYFkBZIVSFYgWYFkBZIVmHoFkgzC1GuUvCNZgWQFkhVIViBZgRm3AglAmHG3PLngZAWSFUhWIFmBZAWmXoEEIEy9Rsk7khVIViBZgWQFkhWYcSuQAIQZd8uTC05WIFmBZAWSFUhWYOoVSADC1GuUvCNZgWQFkhVIViBZgRm3AglAmHG3PLngZAWSFUhWIFmBZAWmXoEEIEy9Rsk7khVIViBZgWQFkhWYcSuQAIQZd8uTC55JKyCDVqwDLjgkxDrodzNpRZJrTVYgWYGjXYEEIBztSiXvS1bgObQCOoPNgkDAQAi2IoVAryCwbAUIBwKH59DFJaearECyAidkBRKAcEKWOfmSZAVO3AoIFhAoIKAgtCRjEOCEtp5AaIGPhfzN/CZ5JSuQrECyAodegQQgJJaRrMDzbAUMQAixBQ0IPLAq2GHa5AwUMJjsQVJoeJ7d+ORykhWY5hVIAMI0L2hyuGQFnh0rEGi6QMBAaFUgzCgqsOU3oQ9WkkN4dtyn5CySFXj2rkACEJ699yY5s2QFntEKKP8gEK5BiCX/wwdSmk2Qv2udQbMJCQvhGS1w8qFkBWbICiQAYYbc6OQyZ9YKBAoQpNAQKucgZVk4oU8ooCB0dDESfDCzbCK52mQF/q8rkACE/+uKJe9PVuA5sAJ+BA2KnsWtmzs5c/5s5jVkIBTI4ChBMQEIz4EbmZxisgK/wxVIAMIJX/ynd6ZL6jdpOjvhN+I4fuGB91NT/prgl7ts/mtFu7P5l4m7H783/vepTzI+wgFHIaCq39hfcfnkz+/ilWefynmLW0hpPkEyCHIOUx89eUeyAskKzNwVSADCCbz3xpX7WKGtqV75uy0RnTLLp/bWwjqf+l0n8IKSrzrkCmhSXwiC0lqovYaBud+hjR0G+jvRJxA1ArnzYWi0CowdCJHQwp5q91a7EWuQDV9KCVI6cLFU/8AUFqoWjHgu/3rro1y0eA6XLZuLK/2P+rlAUYl8To6jGQX5rDmBREwpse1kBZIVEJ8QhTfJYhzXFRiP84x+TfQfQxgzTHNxykeGCQlAOK63aBoPHmUQ9MbKvRWAIMTBmBxovko6CkLLxw8dCp5FoezRVOOQtkNsjfIP84qMSY8Zvfxo45e931FSokeATd53+NZ9O1jZ0sDlJ7Wao1oGUhgYYNodx9se1Q7NKwGj02gSyaGSFXgOrkACEE7kTYsJ5BqtGVU7EwVGEaRuGIc/oQQgnMibdQzfFd9nE8wrONANOQjl/3Gk3VB+7zjaaVDBYvdwlZ7hPGfPr6PGCrAs0S049GtcCEk2eEWWIaVKGTeTjrgFUSEjhHwI/72pC3usyB+dt5gaPGzLIfAliyUaCb4mFBzlJRiFRcUaiZDSMRhA8tFkBZ4fK5AAhBN2HzWZLPI1ulkEChBCdday8ZvfHjluSwDCCbtZx/RFE3fSbLeaxg8thvIlqtUKs+prce0oQ2CFlCyL+/YMsndwjJef1kGtpPxVp2AqgGAyFFbgky8MQrqWXMrFshzVOZDkYB6P/3qqm8c3d/FXLzmLeU6ZkBQjFYuRkWFa6jNksylsXFKho8AlsCcyC8e0EMmHkxVIVuA5vQIJQDhBt0+2CU/b0y32Fips6c0jaeHls2tYWJvGlShOWtOPcD4JQDhBN+sYv8YAQckSmFS+L1E7Dr2jJR7euY+TFncwrz5LKgz0PcOWzX/c9RSWk+JNa5bRKBmGI1QYTOrJ/EcSCJKlGKuW2NozQn1dPQvqsqRsG98KGQ0DvrGxi589vIfXXLiC8ztqGS1U2Lx7B6fMaeacee1kbAEFwo+wzLgGQQlavkjEmI/RFJKPJyvwnF6BBCCcoNsnW4YAhK1jFb710G5u2zGs9LLz59fx5rMXckpjlvQUE3QSgHCCbtZ0fE3EPxDaQWBVVYMg79nc+FQnA8UKLzpjGbNTqlDAE6Mhf/+/D3P6wib+4sKltEoEL4jxSCkELU9FZSpsyn7I471DbNzRx9mL57FsTo6UE9Lv2Xzm5p38ausQbXVZFjTX4BdGuGSBzavPPZk5totthfiSdJBMlvIUhcCYWNt0mEFyjGQFnssrkACEE3T3BCCMhSHffqSPb9zbTVfoaHQ5K/R58zmtvOms2cxy7SOmlhOXfYJu1nR8zXhro4T4IntcoRLaPJEP+c91j9BQ18DL1izCIcV/39PFT7eMcs3yHB+6fCFzU5Zmk6YGCOYdWsTwA4aDkJ88tId7t/Vx/qr5rFw4l+39Rb5+1y62FkyXgwCWMxtKfOG6layqT0VcCAM2tJNBeyIMaTHJH0yHISTHSFbgubsCCUA4AfdOasHSlf54weNvfvoETwzbVC1XIzU3CFjRZPGRFy7hotYch6emTbDNT8ApJ19xDCtgBiWZMoOMVraV9SdkxJAiFnfvHeVLNz6K19CEE+bY1ZWnkkpzblvIJ164hMV1abJHKDbJcT3A1UqA6ZDwZTsPYMtImY/+dhNP9vmk3Abyvs+oDRVhGQRQQ56/ubidN57eTkZLFEKQVZZEpIsgf4+gwTS2McgzcPTaDsew+MlHkxVIVmDaViABCNO1lBG1PHQ0QRtFYmhq2Q8seoOQLz/YxXc39FN0swTaKx9iBw452+eaFTk+culi5jkmkpP/2lYQRXMhTmAbBzuNTnu6Lj05zoErEMsiqRaCGagYtbKK5gGMYvHfj/bw7Q2d9OYdKkENpANWtZT4+NXLOGtWjqz2FEiXQaSXYTBGpHEgdmHjBObffFv+HqiNjGDzky1d/PNtneyvNlOxfWw7wPEd0kGF1c1VPvGSFZzeJLwX01irnRCTAELc5zhZgumZ3WMpofgCg+XscGQuRNSmI6AmUfV4Zqv6rPuU2rfhw6jOh74mtF6MlcrLdGuZHw1Tx1B4jSbIEV/jnzPaIZMdofhRyYwJKFdtD9GZUR8qeqI+rgBe/Yg8j3Je8vVxa6+SbiK2b9RvPlnUTI9tR4POnnUrf9xPKAEI07jEEiWJQ9fHIzBmLMZYCgLW7hnjEzftYV81RdWy8LSfQaJAseiAJqfEx1+4lOsW1UbRo6UO3I82CIn+TEdkghCm8ZYdl0NFd35cXeCALwnBs0J2lwO+e/8+fvDIMF1ho7AIWFxf4kOXz+eF8xrJGrZg5FpNdD9ZJSMmQWo2QdoiZQsObYrY7Kz4fP6mHdy0J6CkGQwLN7Coscq86tQ63nNBG3PSNs4UnRLjfv0Zr5L261CohFiOS41rHLPqSeo5T0G6ecbfm3zwxK6AgEBTmjJlqvhlWnAnCb8YIBpv9hFwNnPDpvJrZq6IeE3NdkXfYp4JzdlFWTsDdsMgwI/1xAOohAGVwCLjQtqEX3q2MdiQIWYx7JBjj+MRHYpqgP5MLLklAGGanqS4idEYalR2FmKiZbG37HH9LZu5aadP2UkRTIosBSD4oYcTVLl4nsP115zM0pqUzt4TIntgW/iaOPC1Uz2Juqbphp2IwxxKcSiKtkqE7Bjz+Of7e/jfLQX8akCL7fP2NXN4y5mzqXeMyzUpCBP1xEJaBlpKGcM4VdFSEJApf/ctm1ELfr1jmE/f3ElPOYUVZgnCCq3pCn954VxefWojtRoUHbmV8lgBgpxW2YKuwRI1WZfWnGTBxCkbp54AhBNhhMf/OyRKV9AXmjyAbLbjd1cyCuM7r2HuxhlWtb/xjNLUCQTjY822bizXgGjz7YZgK5078ie+p4f27BR7ChVu3rKfHf15zl4+hwvntzDHBsc3/lWPpUkGOa6xTvNfe1LG4/iv47PxGxKAME13xeBPkzLQJFgoWQIo4/GTJ4f5/B176PazVNyQVODihGJ+Np4gW2G5+yGtqYA/e0ELrzujg3o7VswXIw7U8CekbKbppJPDHJcViGOdWJMwcptRzCNtDcJIqVKwUvx4Z4FPr9vGQClNzoOXnVzP31w2n/ac6GOYchMqza0/ROLMBiAoaTU2O61jGNcrKdHNo2Xe96vdPNwrYswZcDwW1lb42BXzuXZ+FlfeaR8Y701ejKiL8tjWJwwZ9C02bOvmBcvm0uwGKiEtVzU5Cjy2L0k+/btfgUgZTG00ssE4CNJeLckcCTiMXKT+MTlOP7BkcMjrUU5PVArQLIT5WaJ7L4ruxadKMCWPgueH9JZhw/4C//nANh4ZKFKtuGTckBevauT1ZyxgZUOGXEqAdRR4TargxtnfKN8VndJUWY7f/Z2Y7jNIAMK0rmiUM4tqu5LW2jRU5ou3dnJbp0fBTlN1ytR6FVbPrSPl2jzUOULeSWF7adKBx5rZIX97xSJeMDtHVlPAprYnUeJR1eqm9XqSg/1fV8Aol5vUqjir2K1JCjWiqWg2KAw8xkjxg63D/MPtexms1uj9P6Ux5H1XLOCS9hpSlsgXRW4xIhOqC9YWxCjNOgkgaF1f5ylY9FcC3r+2i5t3lakKWHV9VjYFfPyqRVzc4ppxTc7xBAgSV4ZsHSlz2xP7eO15y6mNeA5J7uD/alXP3veLvceTRcxZmjmiEs5Ivd/X+N4ETk48R1RN1KTtzWeNZsjUL/NcmfJalHwYL9cKp8uhYlkMlgMe6c3z88f6uX3rEL1ORku6BDaOa5Px85xUb/HSM+Zy6aImltZnqdOAzJTyxjMI46cUF/eO5hynvorn0jsSgDBtd8ukzyaj3BHf5xuP9vKN+/ror2bxbDGwEovdCn955RJqcy5f/O02NhdcCNKkAmhwy7x6dRPvPredOSk12ej/Irc6Za1u2i4oOdAzXYGIpyUAQYCdYgYRTZKUp7rQgHIYcv/+Kt9+sIc7O0sU1en5NHplrlpcy3uvXMzynE0qCAhtV4QRzeYf8RIONoPY+uLk6GAF/m7tPn69s6gcBclCndJk8bGrlnBRc0r5LWgG4dCvY80gSBalGMIdu3p5sjfPO9YsJhcVFbRWfRRB4zNd/uRzJ24FFCBoG6+JtasI78ViuBzQNVxiIF/FDwKaazO0N+VoSJtR44oZIo8pP09VOo0SA/o5sd1azUzIbm40aAWWFAKbLYMlfvVEF7fuzrN9xKLop5THlQ6kz8dHSOQVSwi+Ho22z6lzGrh2eR1XLGthQY2LQAlHAbhk8IxHn8n9YwlAmKZnyVTWVGBfGbqyETyWD/iLnz7KE6M2npWFakCDU+YVyxp438ULyaUt/nlDF995cD95YbJLEcEqclKjwydetJwLZqdwYzpNlD6emswzTReUHOaZr4BkDwQKhiE9I6N09Q2Rr4SUApvRqkdf3mPnmMt9PQG7xqBqBXhWCSvIYAVp6twCrzq9gT87t525jkx/TCmJS2lgT2tBnHBhJplgLHFvMeADt+zmtj1VdXHVoMyqBoe/v3opl87NkFKN5sNHRMcOEKDHg+/e/Rg1zbN44xlt1I6niIWjE4VqMy8oe+Z29Sz8pJJko0mgXih8q4Cbdw5y144+9o16jBVt/DAg4/o0ZyBnRwWmUHJjRmbekAxjws7TL1LeIaoxAgUkZLr27EW8ZEkDdVaopTLBzYMB/HRzDz98eD9bxmA4zBCGWULfo86qcnJjijl1IQ93j9JdrRWYQehbZKyQ1kyRi+ZleP2ahZzZmiId+tiWyI+bfjJDT5yZhpoAhGl66EzDjo8dpFTLvscL+fwdnfzPph5KTgrPzpH1HVbVFPi7KxZw6fwGncewcaDCZ27Zyf3dNkVXWtHGyIQeLzu5mY9dvZhWR6ItqUGbDMKU7UDTdD3JYY5hBaSbRfgnYUDBqxIGEv47lAMYHCvS2Z/nzq193N5dYW8BRp00FSdDppoCWzINFWY7ef703DZec9ps5toBlmQR1AaUnqgnFxct4uJT7GOrVsjGgQJ/9dutPDGcwQ5cje3mu1U+etkCXrS8gZTUbZUwOLk3YsIJPhOAoGWUSCBKANKmgSpfWfsAl6xZwXVLmqmPdKFldWxdk6Rt9xis7Hf60VjXQuzHD0MKWDw2WOXfb9vKXZ0Fhp20ar8IQbaq27hPOqzoBi8Dy3zDgtFNX+Oqg/ffg/CCliHsEDcMObW2wD+8/BRWzcrhBjZ+EHLP3mGuv2Mbj+VrFZCElqNcr0Ynz++vauZlq+cyrz7No/vH+M49e3m02/BjivJshTb11SJ/cHINH3jpchpFNCyUtlwDyhOA8Ds1tefIl48z0iewrqLf8RpwYHgCvkPRhpt3D/HRX21hf5DFd2w8O029X+TNp9TzZ+cvYlbKuPdhL+RbG/fxlQd66SZHxg+1DafdKfHha5Zy9bImJLcQp2QnZxAmP0Mm/Zy0QT4brGmchnBQglI5CKHQE2EshCf7y9z8VA9rd42yZTStGYQg9AhtH8eq0lET8vrVs3n58mbm5dwo6jf3WDU0ojS9pFDlJa214s5Gge9vHuLzt2+nP6wnFVhYtkUTed62upm3nTmPxoxkEAxL27KqEdNc9ApMF07U2T5JTzH24FGmzHxjRJKMsxHGnUpyYMwP+dkj3fzo/q2887rTubytIWrfNSlpab00AOFQkZlJPpuobWZGbs8GOzbnIPdB4J7pHZCfRKBL7FjBqgXlwOe2/Xm+sb6Tjd0+Y05a7diVVm/b1WKAROsG3LpK4NYR6KLtFZRxxZ4jsGqm20YvtUNj66FvK4/Asj2Wp0t84vL5XLmsiUxgU7RsfvFkP5+5q4cuz8V3Qua4IWvaMvze6W2c15Gl0QUxeSF7bxkLueWJAW7Z0ssjIx55P0XK97hmXsj1Lz+dOdKOG3VjxHTgqYsgz547Np1nkmQQ/i+rqT7LUHAm16XiFkd9aEKLLYUKX7htKzdt8yg7Lp5r60O1sq7IJ69dwTmttWSlZGBZlLF4fLjEp9Zt4859sjnk1JCzQZUL5ga8/4UnsaohraI4El3G/lLhxThTOI4mzQOVvH63K6DWIc5xMitab4vhIyg3QZQFQ5vecsD67gK/eKKP+/dUGCy5+LaNJwZj28xLVbh6SS2/t6qFVbMy1Di2tsCa7dnMjdSafmDYDWN2mof6hRi7jw3do5ScjOojiANOhRXObQr4xLUrOK1Zilex2/ONCpNMgYxDuShbcfAmHZcxDIaIbE3bLCW3ZbJoVRy2jfp86tfb6Roa4+O/v4o1s7I4MhAqqjzLOUuEFleiI3QbbUkHdKL/bm/mjP92AxBCkYZXoq2IbsU8XIuybXHn7hG+eucu7h9KUXSkeFWmzq6yojnF3IYUTipN52CB7QNFhiq1WJL+tyoEKWjOBjRr2SGeThY3M8Z9OvKs2AwVLfrKUmso05YOePd587h4US01QcCw7bB26xj/uWGAgaCiHTtSxn3HefNYWZsmY/k4ocm+ShAno9PGPNg8UOLm3f2s3zmEG1Z51ZntvHT5bGqkEy2yzQMscQa61gQgHKUDGE8gxKA62otNrGNqaDKdsRha/M+m/fy/93QxWGkgcKVF0aO+WuIvLpnH60+dS60TMWYxrZB5P+Dn24f47E3bGXEaIDAPS30wylvOquNt5y2lSQhlSnozJyAtPRPqYOZ3xn5noBUf5T08YW/T3u84OpbN1yhjmpyRgIQ4BDNbfAXYX/BYt6PAjx/u56nRFIO2aXOUKKyOkJXNAZetqOWiJc2sqHOpFQEkq4pty1hn2dgDCoRsHPK44Z5ObttToiAER0tSuaqoQWA5NPkFXnt6C++6cAGzJVMRRemB5WswL6nViZbK2NgnW79cRaRMpyI4RupZ5jwISKlYPt1hiv95qIcb7u9mbibg4y9bwfktWZ1YGmcdFERFhxlPw0U3aDwzl5jyCTPZI31RvGWrJLd2yZhIXLpjbusp86/rdvFEX1XBqWfbzLbL/PHq2bxwZR2zso7yqPpLPrfsHOC7D3bTXajXFlvLrfDSFQ28ctUsacQdzxZEZhI9LTBUDfnppiFu2TJG0aqStj2W1KVpzki21cjY95egc1gAS5WsVeatq5t45/nLqVcgGqgg3QQR0pQ1BCgM+QF782UF7EvqXZpUCdeMTJ8koxSpmD4rbscJPYkEIBzlcptYTd3bhD8b/1EMzih1bcx7fGbtZu7rdvCFiGOjkdtF82v53IsWM981FWMBBnJEJ5RYKqTXcvjIjTtZu6NA2ZKOhxDXC1jdWOSD1wphsYZ0xIQXFOzow2o2IcP3SgDCUd7KE/A2IyCrrBEpBWiwbdLvcr+VlKV+VqIy+ccqjuUrseru7jJfv2UbGwddiqmM9njLvU0FRXJWiY6swzntDZy5qJWOllrSIqSFzFoIeXxPPzc/sZfH+i0Kbo0amLAPjLSMhSeSy0GRuVR5wwvaeO3Z7cwJA1wZDa34MwIMSrSNd+cYiUbLFpMklRwmWQ5fswd6gCBg0LX44VP9/POtO+m1amhwqrx4aSNvPHcey+pcMpYRppncPzH+9/Ey2dEo652A25h8RVRgMPobEoVrtyAWRQvu3Zfnc7dv49EhsRURB/epZYy3nreQ162ewyzHiLvJLBLxWT2Bxbc2dvKt9V0M04QdBFzS5vGpl69gYcrR0paKzBlHG9O+6an6fPm+Tr73SJ6CJWJg0tIoz5SU2URBVHyhowRfSdXWhhXetLqGd164lEbLwvUl+RriRzU5/SMUlaSI/mgLUVjeI8cSQG/kxyVha67cWGuipJg8EIddgZh5EEc3USwYxV8mKhwKLb72eC/ffKCXgUo2klGuMi/r81eXL+QPltSREwKNUMYimduU1NcCn7Jlc0t3iet/vY3d5TQlx0FycM1OgVefWsu7z+mg3VXOrrbqaEZY23xiWdAEIPwuzTcm55lNczIzWxyfSaVLitbU9+PecMcIu4hjUm0Eh1HL5r69Y/zTb57ksWo9Y45DGMqoJRsrsAl8qHUgGxaptR0ytq1+ruz7lHwYC0KKkn1wMuppxeFJecojReB42GEZy4eObIXXntnOH66czbysyC7HCnU+vq0qCVEEFWcPjH2Ny+RGkk1GxdGiGjjszXvKvfnOffvYUayn4Ej1OaC+6nFKk80LFtXR1pzS7p25mQxNjkWda9Gay9CQsalNy+hpk3zRIVJJPux3adL63ernJIjRgV5KKWQsDLi3q8hX7tnHvf0laQxU7lR72udPzp7La86cS6uQ/5TPEgnHaaQfsKPq8L4fPc59QxndlTusPr78+rM4tzEdicdFACGSPhZb6BOAsH4P3320SEEhr/jMqoIBsZNUVfRC5Dxz2kpe7xf407NzvP3ChdRjk9ESmxGb041ewXk0pEyzIQI6DHAVsKHAYxIdfFw+/3d+N078CSQZhKNe84k063gdVqN/49EEgT40UOEDv9rEpkKKilWH69k02iO8YmU9f37efBbkjF54LJ2rSTU9mKR/od+Df3mgm+9t7KM/bKBiu2SDMU7OjvHBa07iyrZ6cvIgaPH4QBKXpv4Ueid52aO+pdP4Ru0Hl+4FSes7Do4kMEOfwJb5nAIMpFNbwnTTOhWPYIqD5ojBZUiGgcX3N3bxjxu66ZX2WI2shIdiHLbmIEJPiX6qASezoaPbLwNqpFyAI0wFExGJQ/SsdDRMR3INVSw7pD0Vcu2SJn7/9Nmc0pJDm78i5ykfijkOEVcssix5g7E9kRGXklp33uPR7go3bR1gfecgfUUHL8hQdkUmRwhgouNQwAkLNLtlTm5OcfGcBla3NTOvuYbZ9VlqXahJOeMTJafx1iSHOoYVMHZt3I1slBULbu8c44a7O3mgN2TEsUiFVRalyrzq7A5+75Q5dGQss2FHZbVYXFm6tkZwuf62Xr7z5Ij6zbrqIO954TLOaI7LroYOGQuLiaWNeiE/fqyPX2+vUrLS1PlVOnIVGnOezvigkmKoFNBVzJG3LerCPH96Vi3vPH8RDZJBkHKcdjYYloyWZ6P+hEIYsne0qJNOF9TlyGoXkSECm8xfBIx1DWeeb00AwtE+PBE+mOBlmVSxyG9Usen24MvrtvOjzUOU3Bp8shq5rW4Y4++uXMAFc2tI2zqtJioNxClbhQcKNERA5/6BCp+/dTf37k+Rt0XQpkwuGOaFi3N86NpTmC/DRhTlmgxZrEE+vkPMQCM+2lt4PN8Xg4NiscRAsURjU4NyTaSWKfdcU5c6pMhE5zKmWbNBurdHdMFIdEZqqo8Mh/z5L59k85iYWUqFtDTzEIqzk6yBABA5tCkHhLaJfOQ8JGoLJHoPhfolhmtGg5nvkWiwavTrA8lGVFkx2+LSJbO4bGk7i+tsWhxI27Ea/TjZRa3Uk/+FFvkgZPeozz27R9iws5+t/VW6C662uxmOTKiDonyt5dr4bpkcea5cmOX1qxdwRkOalkyKlHY7GjZnnMKNaDbJYLLjabBHeWwj8mXeLBzBu7qLfOn2vTzZU2FUPFfaZb6d57VnzeEPT+9gTso1LbTj26nJvWqzYFhlmBTX39XLtx8fVfjgekXm1HjkNNtkEvpmf57YjMXuhsoW/X4douox3yrx5vNmc8HiBgQbe57NzdtH+fYDY/SGAVnyvObURt5zwSLmOXH/hTmykWIW3o/FzjGPnz3exYbdPdRYPn985iKuXj6b7CSJjgk+zszMZyUA4SgflPghGa/3KxEtoGq7jAC37hjkY7/aSWdYQ8ZxNdqrdz1euyrFuy5YQrOkraRsMHmsbpTEM1GkoNuAwcDivzZ28p17h9nt12jLTuBWmWcXeP/lHbx0+VwaNYsdpazHkwkH0CiP9qoO+b44XZ6IMh3dMsbrJe8W1bjH93ZMAg1EAAAgAElEQVTxVM8A556+kjlK0oKUZhFMStQABHm32dSN8zR1T/m76BhsLwd8+Kad3LW3SCXMqZaCdgAIQIgaCNSFqkFKO5nYQ6SIoNwUAwqMvQqLW+xV/m6YgfGAJ53oaAfUWBXmOhXOW9jK2QtbWDg7R0POpsa11OFLh07eh+4xj519Y2zpHOOBHX3sLUPBFS6Fje9Jg66jZETbN7BXRlFLtkKATEvK4u2XtPK6kxp01ogAXbmGybXdA/X6Z2pz2dHZ3fF416GefZmMKJmie3uKXH/jYzxRyuL7LqFVosUq8I4Ll/InqzuYTUBK9S0ipxR1AkgYZbgLsD10+MsfPcH6gawCVyEHajlJameRbzQ51smD6aLBZGEK3/FZYouWTAfXLm/VZ6scBPzqySE+f8cAewLxyT4Lg1GuWzmLV567lEU1Fg0qjRQND/NC7t9X4Lt3bOPhYYeym8H1xrhqToUv/sF5zI7raNGDNpMTs887gDA+alfFasQ7GkKLUTiMnLL2b5tIxwQ8xrGquzpsFslswDpZUQctidH7lEixLe/xTzdv4tedOYpWWvvVc0GF0xpLfPRlq1jVmCGrHcDR64DyQCxTao5dxWLbSIUv/noLa7sc8m5aSTm5oMQFTcN85LpzOK1Rhu1EJxLV+GRDMCdvYsbDv+ICycS4HFEpG3+FkhZWOp1uaiYlPpmwNvPSbEd2xJGU8kRCiHxocfu2PWzc2cXZK05idXsDLSlTJzXpTbOkxgyiEE3/MOBByIS7qz6fvHU/a7fkKVoyjTEiiamlRgNxoimPeghbptcZwCFZrbQvREgpcVgKVsXGpc0wsNL4oYNvV7BCT9P/4jqrjgdBhTosai3IOFVqMgGNWZdMysbzQkZKHsPVgELgUPBTKoBjid3ZFfzAwwkdLVGkJTKU1K4QCkToSwCK9JqHNssaqlyytJHl8xpZ3pSmNevSkHI1BWwccUK3ne6N/8DQ4el/MwDV2KHptoncYhTAFIOAe/YX+ef1+7i3p0w5rCDb+4Kcw5+sbuXVq+cxy7a0/Va0ONTLjs9aEH/iaZliwHf5j0e6+PaDgwxK8BOW1S0LsSalACH2NKbNcCKTJERHM7ZcAOfpDSEfumYR58ypUbEvOf+7dw/zhVt2szFvU8xmSXll6sMKi2tdXnLabC5b0sCcnMujg3l+u3mI+7bm2e/VUHCy2NUKTWGR65bAR65dwSzNzppZEUqAHD+xmef7nkcAIdYFiIaHaBuLGFlVuwvGPGkHMxuhmQZuXvHWKDX8mIxiYMTEy5hFlCqLiGZuaEgvI77D2qf6uOHBbnaXjVyyWFSjVeYt57fyslUtCg5SofjKgw0s5hGY44trlMdEUnm/fmqIL93VxYB8Wpi6+MyyirzhzLm84ow26h3lwEeT/uS45gGTVrbDvSYmnkd7kQIdQedmSIlEk40ybdKSOraDqZ4bHrx56KMBQdPtwZ6Dx3s6CJv4jdyJAT/gm/dsZ/2uElesauPFpzTTlrHJGdWCA2zBlPQnrEz+urPs8cGb9nHn7jKelVKteW3UUr2BeCCOlKyMDcgmLfYr/AM5Xq0n0rYBLbU2NbZNd9Gnv2xRkO07EEEkwyVQ5rgCX3P+GreJhkM0hEcKaHL7pfVLa7O2qByIpoJFzvFoTIfMrnGYU+PSnE5R5zrUpR1SKZtMxiUtxMPoQRPomhJ9Bb9KXdZlQWOaOTVp2utzBtaOe+IowzLz/PG0PwkTBaIDY5/JMEGUEI0EUjTsOOKYyAYp5a47O0f497s7Wd9nMSqdMUGBJfUWf7y6jT86bTZtrvERah4CStVZmOmNAjkk6Bmshvx6Wz9fuWsXe8IWKj7UWSVO66hlVqqKJdydSQ/V5Oyl2I/MqRF5bst1OW9xIy89uYmWlKoyKIGyqxrwyyf6+MFjfWwu2BQC09yb8kPq3ZDT5maYW5vlga5h9uZFfdHFtzTMotUe5cL2Ol59zlwuak+T1kyb4cM48ixMzthN+x16dh/weQQQ4s3SbLamohUyUAlYt2OIDXuGKFdFMc50EcRRmNRITZ3JNDIePvoWaze97JqbkFQaKY0WN/fn2ZOX0c1ZfQrleHVuhfPaMrQ6FbyoDUdd8WSnF20M8dYgdeqqLcNCYLCSZv3+MsOBpG1NCjpr+XTkypzcmkFYDgoFolGlcfQ4WbL0YJATbwEGEMcrZACFrEnWcljT0cDVJ7fQmjPXKqDBtFMaUd7EZz/dRsbzK9GC+yGqB/CbnXk+d/NuHfl9/oIUrz57MWe15qgRt6aAwDjkOKdj/jTb/5NjHu/98TY2jYlMt9kwVXI7yoqNs7CFkKiD6gKqVopMWKQjVeTqkztYvbCBjgaHesti95jPTVt6WbttgCE/SxBInC9Da4yDijrYxrPDEX6YkMCVyoTjkw7yLEj5XLBkDivn1rCgOcvcrMOstK0iTtIy6YgBW5ASQBl32USZLhOdmisVAC8RWk6uz0g6TmrWnQyen91O9Ll2dhN+IbY84aUY2zMJLVOrz1sWG7qLfHndTjYNBuQl80RRxbtef/Z8fv+0Ntoykn8SMGBKaGYUmfzsaHdW4NgM+vCLJ3q4YcNedhZSVN1aBYmXzU/xzssWMC8jWDX2gmY1J/sZ+VkkllUZxIbaVIompd6YLLFkrURLRIbjPTVc4jdPDnLTE110lgPKThY/NAq1IhbmBZZmLYKwRC0VVrVk+P3Vc7hoXgOL6ixqJROnoZHRQRCwLFm4g8/puXbPn+n5Pq8AQtyvanBroNSsX+3J89m1m9lTzhpNfC3jGkqg/qy96PJ+P6oPHxokRPGbPgSBqsylsDxhhnsEjum1tcKU+Tc9vojciAuUsb/xlEdDUItc8tPAiC+ftQLSkrXVMaZyFKM9p61ygU/oGna8yX1I76+rYjoy/0Fa0U2d+9CjTwy4MRuTpIZVACWUazDQyA0CFtgl/uqKpbzi5CZStgAEGaoin4m3r5n6qEw8YhMtr5PWIvK6xkUah3XrnjzX37qHp0bL1NpVzm3OaL12zbwazQBpnXXcW0dUcSzGsPjFtkGu//Vueq167d/WGE36yWNnpZwFI1Sk9i56G4HHGbMs3nLxQi5pz9FkmzZHca5VO2Rzyebr92znZ5vzjAa1CnLFzgxAnOSY9VQMp0EiNLFa25JryGuk9aYLl7K6NaVkLimnSWo5lvo2JY6o2KVioZK5M1yCcfCqz50haGr2Kv52eW90PuO/SyDpM/Xtkz43AbYODIAioqxWoAyZVnFaaFGwDCHxC7ds4/HhrHZphX6eJmuYt56/hNeduYBWWwjTEdt1vC1WaIRCqjV+q98K+e2OIb5yy3Z2lVLgpHF9j5UNFu+9YhEXz8uqaqztStHicK+JrLCGcRK0RGJdUeyCpZkzT/9tKEizfu8Y/71+Mxt6ygxZDZoBK7oZ6gKXTGWA1poCV508h1edu5STslAbiKeNsrChgx35cDkjk1memcHR8wggTIydUe1uHTsa8Nl7e7jhkQHyQQo3MBPJZSOVd+h2HTldifLVoifpIE3eChWrygYempkLEs1JtTWeRJaWvlxk5oIbYU9UVUxlNoKoS2GcexA/CAdi+aojgjiyUZuHSzZsvRYdHmIAjJEeETAgXcU2ru/qSOCqI61shjEeBQNRO9pBG5umi8XgdZSKZkHMb0Q73aYuCPjDFTV88LJ2mtIS2ckWECNoU/s+AlFjGpzZc+AQUUujSb2bHmpZGU/KWmFI3vPpLgX87yMD/ODRYfrE7hyHnFfltCafl50xh7Pb65hTZ9OcdqjRVixzDAGJnVX49NpdrN1aIu+IjQmYEIggpR8xUCMqE1eKjbpmlZOyJd510XyuW95AzjJcgHE4alUp47C+t8hHb9zCU6M5EykdKiWkeFEAgtiUIU82hGO8cHmOt62Zx2nNGVWwC9VRm/caBxpn5iYPlYq3egNPY3AsP4pDNiDHtH/GBE5zZQdAlueAUTxbT3FiHfWn6N6aao7xk/I78Vtxjr8Uwn1do3xt/X5u77a0tTBLibnZAn98+lxef3oHs9yAjCWRvXxebMU1mUZtJxRegKUqhT/fNcyXb9/KnmINtp0hF5Y4JVflbecv5JqTmqmNSDnCJTi8X4mExSa3CKv/NRLhoQ6zq5ogSsTpLFuFw/aOVfnN1mFu3NLPkwNjDPlpOmybSxdnuWRVC+fOb2a2FZDTzK7JXpnTkZkPcYfRRAvxs/UOH8/zel4BhOjWjj8EJSvkaw918dX13QyEdYYfEKkRimcT47YDXx8OE+sLCDgomoq3xMDWOpj0kFcjAoNvGVV8Se/qBqvAxNVoToxdHhOJkFxfHLq0fMX6iU+/pWKXBkaI5/QMWz2SXDbuMtDvCUQxTL9TSgQprZE5YUW/05NNJCJjHpxG1ByAXpuZi24e6pRGDnKOAitEKa2JCq8/s573nNdOg0SrIuUb9QSbUHCmFxlkBQOqvk8xsBiuhPQVfPpKMsa5Sv9YmZ58ge1DHpu6Q/rLKaqqVGiyV66Vp9Gpsqwhy6LmNCfNyrG4KUV7Sw3ZjAuOw/27x/in27oYqJrsltw4Sx2fpwDB8BBMVkp7X7SNssrLF8PfXrGMJZkJvstEG6WUxSx6Q4tP39HLjx/vpyzxvw7Jiex1fAeJBj9ZPmXHUr37i2eH/PVVizm9xVXgIfBa4LaAZs1m6WcPdPJxNsDAhzjFMjHsyQzCiQDC+GfHGS/RQzLT7W163P+4P5CsTlTsN4JU5l/Em5TDkLEAHu7Jc8O9e1jfA2NkkcHHc3PD/NEZs3jNqe20SWeLCHBFDC4TYYsfEVEv01jT7/v8cmsvX7u3k61eLZXQ0eDj1FyFd10wn6uWNlAflQkOJEI//XrVdmL7irKdJmiJbSnqDhMr08fFAArxdKNYPNFX4MEdvdqBs2x2I5cvaaKtVqY1mtJFPJDJSEHJf00gZLxiHB5Nz314rh3l+QMQIpKh2JEhRfl4lseGAY+P/2YHDw64BK5R/Na6fRhQFxTI+Xn8wAgdiQM++BW7JxnjrJG97VF1M5QskcEVFykbv+EWpPDI+sP4jqDZkIx27sh3RY48VtA7jJUIIJCNRIhmAl5MIcRogxecRioiCqIAQZyqYf7WhEXcakG/R7TFpdSgl298fuT6Y8Ai9TpRbfCp2MLgbVQCkdSBDabxOLmhwkevXMRlbY0KiIR6Lw+8Tm5PEgjqMKphyEi5zPZ9PWzvGaK3CH0Vi4GyRe9Yid1DBXr9FGNhHYGd05KTZhk04pb7I6QsX0tDtU5AXcqjucamTkiMmTR7B6o8NVpj9BOUhKhJflPfVT6CaYeUQ8m9k7JWOijxznPqePd5i2g0Cdio1GSeCHmfGEXegu/vrPC5X29lhIyx3SgrND7FUUoLOkxMZI6qLE8X+eCLTuPy9gxpfU5M2cHYYQQQ9Lk6eDOfaGA0TjfONhgbFXBiDDTOSplri9ISSaZqGneTaMWNRLFvtj3JpPq2qGCG9FQD7t8/xkO7h3ho9whPDbnk3Vqqlk+aCitb4T0XL+LK2VkaAxlrH5o5IGKVovchcU0gGSfoD+FXWwf4zw17eWrYpurW4AQFVjcE/PlFi7lsoWS4TGlJ7VvLT1MBwXjQfcwVM6AgGlU2aapoJFim2VYpb2nKhLIfKv9AZkDUWkIajyZMaOePISvqcyUXIZliCc70lOJZI0fKcEzjjXqWHep5BBCiFkSTOUNmdolDHZTWmo29fOP+XgalI0D7wB0kwfrKC9o5s9WiTuqmxo7UKA4myMg905JCaFF2AnaMwQ/v2UX3iFGKk2OmrCLLZrm87pIl1KVlSxcGrJyTbK1iqoJqD99hIN8hTlweWCkdSNlA2iglMzDiWXx//W42dlfw7Rp9EOWYjW6JN1yynFX1FhkhFtmWptZiX31wklbORDT/ZYLkA/sCvnd3J3nb0Y1KiD4Zt8ifnFHLe9cspM0W7oEkEIzKo5YzkqyvthsqxyAIKHueRl5VW8hbFhWp3Xoeu0Y8tgx73PZoJ5u6qozYNXhONHdDHY+FH3oKNELJLoijFHKf/CntXnIvBQiqmqEAC2FqiyqigDXJ6OjgW1O/V8Z1SGNY4C8ubOJNq+dRIyfoRFkGKU9JdCcs8cBWLsLarjwf+N/NdAd1EUCIWtuiDIIcT7QY5K7P9oZ5x0XzeONZ82iRFjZJvRr2i4m0IqByYPbAgIYJseSJfNZ45SAC6gp0ooxbrEo6CdU+y9zlc/R0TBIqEskyQE428pJlMRKE3Lt7gP/vga3c3wOD1TqwM1oywJbSmNxJj3qvwoJUUVU3X3FqGwtrZKpoYHjXmuIXmw0YsWx+tnOQf127jX3FLIEt3VABq5rg3RfN49rFDeRkpLkcP85MHmAUT1/j2DUbOBlPxZGnZUJYSQIkQ+CNyluaQYjb3E2nlkQ7pk1deFxaUIjKWxE7K9IUiTPARl5asnZmz5gKwjxHreOIp/28Agg6EVlbGQ0LV+VBQ3h8sMynbt7KnX1Vqk6OIEyR9j1e0Frlw9etYGWNGLEYuXqt8ZSTWTnD8DUJrZBe3+J/HhvkPx4YoLtsEKdEgwvtEZ23cN3KNmrNcxOl/eO0lYZKR7wZcTpLN2aJDjVza5G3Ye3OAT73m83sDoRwI21vDg3OGG9a3cRbz5nHnJSjG0hMUJxIjMUJZDPUR9KIO0o+/3TzTm7aEVBIiYSvRyqocHpzyCeuWcILZmc0rWga8szjKZGmppRn5GMycdskIjFNhkbtTe6oiCPFNUxJ43sEFB2Lh/sqfOmWPdzXF1KxhUXgSbilzGhT/43cnXbSOCp2ZOxN2NNyTPG+ksiVLFRVxzbHAEF+L0BRbd2GFqvIX1/cymtXzaJO5tDo6ETDI5D3OHK8wNGNf91AgQ/8ZAv7qnURAcu43li8SQCCOHuRi17dHPLJl57M6nqHTBRNmWqt2RRM5BWREKPmYUnxquUeDChjpnr0e4Ul8QHGyT/mdwkWncbtRo01bnKW7JCAWdiSr/C/D2/jJ5tH6SzV4NlGjlsi7ZQ+7xahEKBFTtmLygrWMGvaM7zh3MVc0J6lQUY1W66OZO7zfX6+s5+v3rWHXflaLTm4VDitrso7LljElcsaqRPcIYRAzT7EejRHU7mcAJnR5UR2Es96iKTMdThU1KZrm3ydqpZGrte0CxvvaAQ85ScDLiSDYKDCpLkpWq6Ino9pvCXPlUM9fwDCIVbcDGGGQgg/3tTD52/fRT/12g4mWvaN3iB/cfEi3njKXB0coyX/iFktP2i9V6J/zc4a4svGvjL/cGsnd/VCSd4u40X9Kq9YWsdHrlhIq8jHxvpL4+NsYzrZpEjqUBYS1e9iKBET0XScacXjH+/YzQ+eHGZMJjJYadKBx9ktVd53xQLOb69Tso2pCZvShmGKG8CkD0IAg17AD7b08W/ru9hflhSi1A6rtFoF/p/zO3j9GbOpj7oxJyvcxacb9zs/Vwz8eJynSVuO0/+0Y8bENRaOJgACBiybO/aX+NodO3m0TyJ/lyxVUpan8sK2RPiy+fs2xYpo3GcopSwjNBPJMEu2wmReoxHRUSlAr0nHQRvJZgHDNWGBt5/TyLtfMJ8WyRa4JsIyGXujwCimULQCvrNlhH+4ZQ/DoUxfeDpwNXXkkAxlXn16E++5oJ15jsBSucpY7kubb49peeNe98lKlMd0wOTDh14B5a1EICGMgoSRKjc8sJtfbe5nyKul5Ka0xFhnFalzPFrqm0g5LsVCnr6qx1hFrNfFdz1qylXObkrzpxe2cfWiBrK2Q68Hv9zSw3880MWWfIaq+qcKZ9R6vPvcuVy9bBY1rtGfcaJOHGPZU4VNR3dTp7Sh6DmY7IEnBztR8uzovmwGvet5AxAOZWhxakqKDXsrPp/+7Q7W7hgj79ZRtcq41TJrmi0+fPVJnDunVkkrup0q6UtS60alK0aVI6HFv9zdyXceKdIfprVV0A1LrKix+MBVi7lyQZ32BJjeckkfRwg2irJMi87hrUszHlEpV1GuBqaifS8PNTw4XOETv3xK5UE9O4Plh7SmAv5oVYY/u2A+c9KxAFQs5SvXYOq7CnIkmzJc4mO3buPePpcyaTzPIuPnuXpBlo+/eAkL0hI5HEw3m4joJgugzqDn5IBLnTSVOCKFy501liK2NhDAzdt6+PEDu9k56FFTU8v81kYWNeeY35ijtcFB6CSysQ+OeWzfO8IDuwdV4EW0NNQOZNytcEM0mp4YkBTXayWoiYWTlKUSFLisw+V9ly1hdaPo4UtHS8RVEFKlZiKgqxzw0bU7WLtTBJiktezQBinPTkva4z0XzeVVKxtpxkeKTqb3R+Hz+BjcZ2oHcbz2TD+ffG7qFTBJG8NJ0YwSAd3VkG+s7+T7D/cwGOQI7QxZK8/yRrj61DbObMtRmxH/ZlHxPbaPlrn1sUE27C3SFQhJNUVjWGH1rCofePFK5tWl+O22fm64dy9bR9OqDZN2A06t93nv+Qu5dH4DtRE4EK6uid6N3U1XpujoAMKR12uyUNPUKzsz3vG8BgiTDbCKx119Ie//n4fYTSNV7W+EJtvjDaubePuaecyV3V3JKzIL3HRzS6JVflMKZZCSxwd/uZ3NhSxV8dxBSGs4xhtPn8W717TTmIp1Bw1cicVnzPzxSP/+CADBzE2PuRSx/rjRKheS26gf8K1H+/jqfX30hjVGayEMWZat8NGrFnHpvDQ5S0iHRl/fJLCls8Fc03AI33m4hy890EcfwmWQLo6QucEwn7xuFS+d7+DY2tUepd4OTOtp4DrDiwyTIxDzswFycrNlrtL2sSI/vv9xHu0cZHHHYs5c1MaKuRnaa1PUOxa5QCLxqARlhZQti1Jg8ehgiX+9by+37xpVYRfpRjFljIOyTtKFI18XT3BUpKBNlrRS5A9Pn83rzulgfsYhp3jUEAmrlkVPJeRnD3bzLxu66bNqsKS17TAAQcx0cb3F31zaxgsXZqhR0GySs1oCm/H87ufGBqHWo+VWU3MtAjfty/OxG7exu1KnCu1Zq8C1S+p5+wUdrG4UJUEZKW9mI8hLxjn3lCx++vAg376vhx7t1PKF4sq1K+pYtbyF7659kr3lGkJbipNlVjQ6vHdNO9cuzpFzJNBKmdJZTJxOAMJzwoCe9wDB3AWZHx7QF4Z8Zf1+vvPwMKNBVqM9x6pySrPP+y5byJXt9dRI/UohriT2BQOIDgDs8eCzt+7m59s9vNCnok45zZr6Kh+5Yh7nz8nhuqaX2ID2gzq5dfOfIoMgKl+qAx7VCyMp3FiNTtjqDw1W+dSt+7itV45f1XYj27O5ekGav3/xYpY6QmYzfcGSNhDxJnlVLIv7+st87MYtPDKSwXcMObGGKn+0qo6/PL+d9pTUwQ9tt3GGJikxxEx8Mz5W0/hKKrTY0jvAg7s6SdfUsqJjDosba8kJVotHx0YZgXhTFm15WVeZrVixbB4YKHL9ui083CdyyDHD/6D7oVkm4b6Y9lSxiUDruaK34dNu+Vy1rJEXntbESQ1ZalIWRR+6CgG3b+3lFw/3sKOUpiqOXLsqDo1Yg8BnZT186Ip2rlyQIyXXIF08kW2a1rDk9exfAaPfEgTSJgu7KiF/9+vN3NxZxbezNPhlXrTQ5s+uXMGSWouU7+OIloshdBkwaptgaTBw+MHG/XxzQy/7KgEl16UuJ4qJLl5J/KWoY1RZUVfk3ecv4iVLJ+kcHFSOSjIIz37L0W0snDI389y4kKnOUsjhMiJ3Q3+FT6/by/39MkLEKNllKfDSk3J88KoVdETzCXT4jcbgrjrYHz01zGdv30ufJQp0VXyrqhHhu85s5W1ntdIirT6SP5v0Ojh9FvNvD3uu45LGE7U5jdmiA8nnRwOL724a5Ev3ddFflUyH9B67OmzkfZfM43UrG1VaVxTQba0rSOXYos+y+Mfbt/O9x0YYcyT7AJmgyikNDu+/Yj6XdsgAKFeZ80d6JQBBYWNE3TTba+BLS21I/9AwrpulrraGTFQCMPDUtNAamqi0VAk5JeIF6D03WgaD1YB/eWgP39w4SimQltzDbN56PBdH2eCSXYrbaKX7xaI+LDKnocTqOa3Mrs3RXaiyfcBn1+AQY55L1TZTNjS5oDybp3+PAOoVDSEfubyNyxUgCCCJi23TUzee6plN/v3YV0AyUDq0K3S1pfn2PcO892db6LVrSYVVTm/y+dyLT2JFc52WkCTK1y4pnRBqjDd0DONfSpTdXsiX7+7k+4/spTdTK7M7cXyHVBiQ80OWN4W84/w5XLOomfqUAaDKljnOLQBTbmNHmsMXLXNSYni6vc0cgKCZ1oChAG54rI+vPrSPIS+trHJJ5s52xvi7q5fx8sXNOlxJnLYCBMti06DHp9Zu5Y4eh8DJEIRVMmGJM5oCvvjyUzmpFh1eY9lHGpQU1ZKP8MxPBhQHgosJLUM/8NlaCvnU2u3cvLtA2a1Tlq0TVDmzrsj1L1nF2S1p3HG5ZZtiCL/ZNcxn1+1gTzFL2ZFhQSGzqPDGU2fzlnPbaE0bqWZDfTv8KwEIkdNUeB0PYxTppABPRatsHeutXbGh4X7EExuNKqaQX6OslrKmTceK8FUKYcBPt43w2Tv301M07Oqnv+KoTu65cLIlapN3isStCCuZeZ5BWCFtSzeKg1eu4Lmi8imAWGZ0mhZao3t1eICwrCHkg5e1cfXCGjKWHak3RheuJ5bkEI59Cz9+R9DMo061NRZSAL562yb+7cEC5UwDuWCUt144l3ed1UG93F+JosTvBTajjpksKyyVXFR01GyXBeu6Snz0pq1squS0+8n1fNKhxWl1Nu++qI3LF9Up0VlavM3/TRMT8Ui+c6rdPQEIz8jQZg5A0AFLgYoiPV7w+cgt23igN8TzJQIXR+6zpqnCZ15+GifXmklkwiYfCeGbjw3w7/d301+WqC6DHZaZwzAffvHJvGJRHddc/0EAACAASURBVGmRXj6UVGjkP2P9mAmp2UPfq8PpEI2DBUX2gRIW13UW+eDPH2MvLUofs6wqdRR43RmtvHdNB63iHBwjALVjLOATv9nMuh5pRxJdfsNIP6M24IvXrWBVg2QOfJX5TSlLfQIiHAwWEoAQZQSi7dGIcpnea039S35AQrDxDMEk7xjVacxIEOGYVLW9URUFZHJe6LN2b4UP3byT/UU58qQ2mNhkYiW5WAExNA2pdmj6tU1mWJgnNmUrjSg1iIBXYFWwqcEKRBypFGkomHM7FCSUNse56RJ/fUkbr1wxi1rhtsRYJ25DnMopPyOXlHxoulZAAEJMnxWT7Mfib354J7/tqiFw6liY8/jIi+dzTXuDmakg81zw6C7A9x7aw56xEa47cykXza0jq9oyhgS9o+zx97fu4re7QkIRVHBlomfA+y5s55VLaqgV1oIlvkdacW2VET/e3dFJBmG6rObA4zxvAcLk2MY4b5nkKP/v6DCc72/N84W1Wxi2RBREUvUZGqqjvGvNbP707Dk0aQuBaNeX+OhtO9k45OB7MrcecmGFFy9x+Ni1y2m3ZeCN6VmfiPMPCq4iJvpU8dZ4nT9iFpnU9ESkJo5cSIWyCfT5Af94Tyfff1TaHmUjkD2pwmlNIR+9ZDFXtdfpRjVswQ8eH+RLd+1nH/Xaix8EFRqsEn9xyXLedqoIlwQa8coxZLsZ34sOsjkzcO845wqPj51P41FN4ckEz7IhR8Ks0dAh42fNpiv8AKnZx+2qsTys9v/rjTWRnSgWmpZcm3V7xvjAzZvZXZLR4TFAmMT4juxByhTxJNJ44JEBKKKa6JP2pGshq6DPd6QUUVFejKpmKkIxm4fa3LiS4cQyCVitt/K87ewm3vqCeVpCEyij2Y7xt01l0bHtRtc5jXchOdRRrkA0b8HyHbZXLP76Fxu5rVc4BinOaLT41HWLOavJIa38EpFWtrjh/r187b5OBh04b06KL730TDqykkEytix6B5+5ezc/3lSlYGU1OJmVK/OO8zr446X1zHLFzuLhXOJx41kH4xY/CS8cXIg9yus66G3HChASrHvodX/eAoSDL9e4QqOCJ//bVQr57G07+M3OIsUwhW+nVM/+vOYqf3vpIs5vzVHBUb2Arz06yFCYUzUtkbRd0VDi/Vcv4eqOOjKRbLNR3Tjy5nk07nRyNu5Q75e+d9lohJV+33CZT9y4iYcHHMpWjQqgSP35NSfV8r6LFtCcDnlktMoX79zDuk6fkp3BDX0dvCItcR+75mSWZaWWbdjuGn0eAerPdGgQ25QZMmu0JvSPCABOYLm49mAyBQdG6DGhxIAIVRK0fCU5ylHXdRb4u99uZm/ZTLczHSjivI1wlfJnVYHRyFaNg8po2zbnYEBArCVv9BAmZp1qBS3a6CeIsxPqRJqatmzSYYWr5gV86NqTWJ6TIWTRtD89iwnHPllheVw33yCPqFRnhJXG23p0zcwo6CO9pnT6z2wvmVGfMgUpEftxeaoEH/r549wxICbick4TfOElyzilyfgAsYV8YPH/3rGLGx7tZcR1WOkW+a8/OZ+FdbLNmzarXj/gH+7t5nuP58lLESusYIclltS7vPnsObx8RQst6lSkS0qFvs1UTzUxlf0yljyp/HasmhqJrRwfs55RAMFsriZVVg4t7hos89GfP8WWQhZPQW6gkrWvWdXMW85fwI7hEp/41VYez2fwRFLZdmmyKrzx9CzvOreDuSkz/EmpWyqLe2zCMVPdYoUGUcuiti0G0vbYw79t6DZtjyKZ7Hssz1T526sWcu6CBr730D6+/lAP/YEQE2XyY0hHJs+HXrSc6zrqiaZTRGpjUZPyVCeS/PtB5XfTnWJsy2yeZuuO/tRoKtbUMPYSIwsRVdIJoaK+GMAPNw3xuXv2M+AJQDDvE70EhW6RKrEBCHFWwejYxyqc0s4Wa14cHpAatbg4QyXvN8BD/2v4E8JlsEIWpYp87OolvHChZJ8Mec1kHiZKExP9OhPw1ly9OW7Me43bfqNJIdERDg8SEqc/TQ9aJA8unVgf/NEDrOuvV/H3ZbVlPvOSpVwwt1Zbb+XOiubK3fsLfP3uXfSWirx45SzefNYSmnU0gbT0hnRVQj5x+35+vKNCOXRI+SX9t5Tl0l4T8oZzZvGKFU20pjz1L44OkIvtNQLM0fTEyQHRsVxtYivHsnqH/+yMAQjqlFTiNhorKwN3LIt/29DDNzf0Mxy6qjluWx7LcwFvuGo56zbu4I49UJSKfQA1mSyrGqtcf+U81jTZqjRm4jJhkoem1nYcX7H2uJHeFZ6Zx6OjHh+8eSv3D7pUZWqkL4NISpzXDn9wyUpuuPEpHpdZTqJ97jvU+RVeeVo9f3XxAjoU30SzzMbH7h7HC3geHnpygnT85yg6N00pRjrZVBUM8XC8KyVuZw1Qlc6dZZ9/u2MPP9lSohRNCp0oLsTdLPGx4vtmjisAV77ECaTEYOMLCfGI4bkBA+ZTcXHMZJFUplwBiE2m7PF7Sx0+/JKlzHXMzA6z0ccy3BPTGc2RTKbD2Kp00IuRRSr6UYpF/za+WAlAOJ6PRZy/ks1/CItP/uwh/mdHPb5r0WiP8L5rFvHqk2YpGdFMgQkohQ6jnsm21ruotopKx6t9hWwa8fjQb3Zzd78lLoXQMzLgriXE1xQdbpm3XjibV57aTIvMeonGzpmbHitxmnbyOCt2rKFVAhCOjxXNKIAQZw/MuNOAigUPDlT5/M07uK87NNMZwyo526atpYH+sWEGS1JLTmH7Nq1OmXdeMIvXr25llo6GFmRs2tVUl/744oPIqUY6DeLcA5+hIOQHT/by5Tv30+U16WwIaWhqSPvMbmxmX98Y5ajWLVXplXUlPnDlUi6eV69OIa4KGpduKGvJa6oVMGWeySn+KCUQrZ4ZNyukQeUjROzTWPbYAAZTUpD1rwQhe0shP3yqlx9uHKGzKK2IwnOINnAZSx5Nv5PvEd6DTP0UPoE4bP2dKC/qrHLpbpApdkcCCFEmKo7i4lsezVQQXX3ZEaQTxvZC2lJDfOCly3np/Hrq5HpUq2NCnW8iVxDv+zFAkO+ZOHgYiY/pBKB4auMR+GuJ05/KDqf+d4V+0YyaAhY/eqyXj6zrJZ9yyARFLl1QzydfspR5jkVap4zYeFHQoJklvd/GX2rmFYtvberh327rpj9soWoPsLIRajM5NveOkKcBuyjjzAPecH47rzi5idmuyTbFQDQ+J1OAOxxNduprm/yOxFb+b+t1tO+eMQDBJEYNOUwHEAWBTtgb8i3++9Euvn6fbLC12jIoeYHATimzvxpWCIMstWHAhbNDFSNaVueSkdGh6pgjElo08vloF/4ZvW88My2pPtlgPEoiflII+MLaXdy4O6SQEv56lZSI5wSmbmgeHpumcJDXrm7m7WuW0JqKSEcaxc7cYSTP6D4Y6a0oAjc/SYtjMRRVRDO8KQYQphsmgmGy6TpmBr3vizJmyEihwo6BIuu2D3P73hJdFclkxR0RJksgHTZKKVTzlemPMhYcHcctIMG0T5oBM8ZELJXhPtxL7TYaSCMKnSazEfVgaOnY0lkROkA8tMmEFS6fZ/P+K5axvF7UMqJhN6YwYUDROO0iLi7In0YN0pySDKkwG1BZ0IwlBS8jJa016YPQtZGXfqZ3J/nc01dAJIwsNg37/PlPn+CJgnTbWMwJPd583mz+6PQ22lwpPJjuGTNOXEjRhmwr97cUWmzoHeOzt+7ikQGXapih0Rrkry5bwPymDDfcs537B1MUio4qhi5ssHjTmrn83qoWmkWJU81E1GdiMffIpjUbdWyBSQIQjo/NzxiAoC5dNvUovytCMOKnvDBg85jPZ9dt5aY9Hp5ToxtsQEadcWiVsDyLDjvPB1+8ipcvqqFWSWAGmYujFpetCgLHOYUw2V+amUwVJSsWcLl5T5GP/3ITe+x6JRs5Im2q9d+Kcg/cwOMFLWU+fO3JnNaYIS2MdtXtiYvn8WS942Noz6ujjt8Ik+6vioBMvsz6rZ3sGikz7PmUfItqKD0jrmYTBKi5oj+REulr8Koh/VWHnoJH72iVgaJH2UnpCGiZA+L4pkPCcA08bbmVLVyyWToVQaboKTiIIvlokqeYpRIApSXlSIRTPZ6Nb4t2ggAMcdxmcqlmxBxXfy+9CynfZg4lfu+Uel559hyW1Nk0aFYjigzlO01SJE6k6J9xhiVmZ8ihJQIdqgb0Dw7ThMfclhbSgprGuynMJ3WJE4BwzI/NRDlLSkcitAZfv7+Hf39wP2NkyHgBs7NV3njuPK5b2czcjEU6lPHl8hKheRkhb6mWyv2dRf713l080B8grAOn6nHpXIdPvmwlczI26/cP86937eCBHhkKJv7HZnE24C3ndfAHK5poc0UsTG60kV3W+6yg9tjZWwlAOGZTOeQBZg5AMFkyLQn4471aBiWL0/rFtkE+9svH6Es3qmP0rRyWtEAGJRqDEa2n/fmlJ9Fh+WS0SGtaG43ojVbnjjtAGHecOsVPFNKkddNRmd4eLL6xYQ//9UA3w04Nvg6wljJIVUliLZVh3nfFSbzq1NnktNnTN+1usfqjJhniqPj4GNvz5qjj9XMpA4iwjI+oDAx4Ft0lj/0jefb0jvBYV4n1nXn2VNL4dk5bv3Sjd6paMsBPU5EOGmlLdDyyVolcGNKSyVGf8WjI1TKrrsYI2HpVesaKdBbKdOWFsZClJEDDlYyD4R1oYl8zQiGWMhuPUN8PApXUFfv3Pelbr+LYUkMWu7JxHAEJUJUpp6EMBstQGxRY0w6vfEEbF8yvU6a6VJRF0dFkFUw2QrYVzSxEwlAyYrwQWPQUqmze18d9mzbT3FDHa85ZSXujDEmLSynxKU9SDElAwjE9NgYgGI6UKnZis7vo85EbN3Pb7jF8O4OfcrVk+pJVzbzy7LmsqJfNPabbQnc54LdPDvCTjf08VRDJZimtjtFmjfG5q0/jikV1OHZIJZQR5wWuv/FxNhRSFJwUOT9Nh1Xizy5bwKuWi8qrZF1FZ0YAqbhjscFjHgwaZUmPaamSDx9iBWYMQDARifE2Ei1p/TcQQ5WkV0hvOeQz67bxk50VSjqMRCIrmYEeckZtkfdfvZhL23JkAtlY06pPrqOVRZkuStMf7wyCiSSNWp62C8n1+MIsCCm6Po+O+HzmV1u4t9+l4qQNZcwWJnHAtQvSfOyKpbRJhKDdECLvK0x1cc5SEza6/oLlEx7CVL4ipovGzG7DORClwrJkFMTxBT6Fqs1de0f4j/V7eHSwhmqQwxEo4ZTwbU8lj23PocnxWNJocW5HmrM6GljQXM+sjEUm7WI7UmIw3TdF36a/5PPEvhF+sznPkwOj7CsHFG3R55DednM+BofEEz1N144WHzQjYBRFc5SpTznMyqaZnbNorYWmWovaWkMiK5ZK9I9W2TUGe/IpBooiFC1ZpwotbolT2uo4tb2BRa21zMk6NGdtMlE2Sttww5DhYoXBUpU9QyW6escojY3QmoMLV87n9AWzaU07Wm6RM3SkRDeOTxOAMJUFHv2/x2UnSSkJN8Wm4oX8pmeUr67v4uHuMsO2oxu5ZIXm1pRZMStLc3M9qVSKfLHIE/u66BxOUwpqKMq8FizaMsO8/oxm3nraPBpTpmVVylHCc1jfW+DLd+7g3r4KZauOtGdxUm2VN66Zy++f3EyzzIhRDktciksyCEd/P0/sO2cWQIhaz2SjlWSXLZu7OHYrpAR868lBvrCuk7Ewi+ea2lvOD7imPcWHr1nAilqp20st1SjfadQmG7b6tpjVfTxvYARwNFIz7HgrkM0dndO+t2rzhVv38qMnxyilRCvR0clstU6BN1/QxrtPa6VR56pFXRAq5CPnq1Im5pVEbFPeQBMpm7dpqjTiAMQpdRE9lnZTcc39VoqvrO/mmw8OkyeHa3tYYRVPesdTDitrs7zo/2/vPeDsqK5033+FEzpHtbqVs5BEFIgMItkYGAYcxhiPc3zjHMA54IcNJnjwMHjutR+e6zSe5zTYGINlGUyWyBaghLJaqaVW5+6TKtzfWruqu4XVQckonIPBUnedOnV27dr7W2t96/tmVXP2lApm1aaoFEBgSSeKETAye2as4mGIjfkQtvaFPLqhlV+81MqyzjwCA7WSq5wHIZolSftyJSKPmyIRFHCsHGnHYkqpw8kNCeY2ljG9vozxlSnKUxauI9wD872E+5jNB5qtWNbSx2NrOnlhR4ZdYl4W2iR9o6dRkbAodxOUpR3clCFWCofBF8XOvj7KEhlqypMcV1vFqRNqmNpYSWM6QUJlvePud8M32GuFrjgfR5yPwx8QEUbFvE3WqsidtiMI+EtzLz96qpnnd+fIBWU4YZJkkNPAp+DkNCvkhGlylpRcI0lvy2NCucUb51Txz/MamJR2VGI+alDRDhhxnX1yaw93L93IC51Jevw0KT/D1HKPD5w+nitn1lLtCN/BFDGU6yCgYZgvMlLQUiwxHOA0GeLtxxRAMJNYIiwT8SlDV1KsFjTnfL5y/3L+vMPR+lnBFSvlAqlCgunlNl++eDxvGC/pUNUsjIyPnUhwJgp9DoxnM4o7LKDAJP9iSd24WJtzQp5ozXPjA+tY2WmRcyWdKCk+F9fJctqYgG9fdjzTSyxtVYurCcoXizwB5MuI7HTxNcIIxMzDOOSNTIyUqCf9sDqGBSW4tpLmjqd28NMXO9Q9T5JO4tTs5Ho5Y0oN15xcz5lNSRoSIkQ0ADL7bXH3smyqvr7v04HN4k09/K8nN7GqWzg14jwq266UHVzSvmScDJE2LfLgSZ8LZ9Xzuhk1zK5NqZBW2pZNwLT/GjVQ05ppsKJo+ft0+RZbMiG/X93O/79yN9uzKRxfHCeV895PcpTMnClR+FRaeS6dUs3lcyqZUFtGbcoxxFjbkIBNRmPouRZvCCPNxuLGMNLTGgsSSWATt3jLHPXoDl2e3NHH7Q8uZ3lvBXmrQvlWvuMT2kJplDkgmcgOSoIcVZbFnIZy3npqI2c3lTIuITPNUUXPmNsl7/LCkEwQ8vz2Lu58fBPPtyXIOjaun2NawuMDZ0zk6jl11Gh3g5EGD19ldPfqbzUSibE4D0aaB/v3+2MGIAyOjg1DWoUENP2asWz++8UWvvPQJnama8hJdO7kVZ88mStHGF+XTbW5QaSVEzmc0NUoSUsKauoUq+Lt300Y7bvieqLgbt+2sH2fwLYQa94dYYLbHlnP/6zMkLXShHafqpfJtcqGVeP18aGzxvO+UxuolCvWdLOxCVbCo5DhtI95+Nr1aK/1aD5uQAWuvxOx/+tqe6OqdXr0hvDnrRnueHgj6zoTxsRJtm4/wxmNaa67ZDrHV7mUqndCpKoY6yQM1xguG3gg/goB7YHLr19q48YlWyi4abxQeDEuduCS0AxCoO1s8ypzvO/cGZw/sZqqhNBWJXbTG6+S4l4kjautk9ruZp4RAQECGiTe2+47/PjFnfzX8620e2IS5mkaQGrKusj74nciANpjZrmI8Mzl9LoSbEfKE1JGMB0z8aYQdz8MNVcG9UgMOZ2KG8PwT5qhIMQKmEJUNCDQ8U2vTNa2+NOGbr792BY296XI+TY524hlJcIeSkOPitI8s2rgqpmTuGBaAw1Jm4RwVrRbJqnYUiQTZQ5Ih434v7hiYR6GvNAJN/9xNY93hBQcmzI/x5xkhq+8fg7njq9CfEWlzDlSoqgIEF6bFfUYAgiCmgdJ46oioU8O+OvuPLf+aRPPtLt0Oo5u/onAw5FedEm/+xb1tPPJS2bwtuPKKZfSQhCqmIxyHwdH4YfwPkqkb/gHpm1MzH4EvfeGDveKt8T9q2m1qsmIFnoQkBSfdtfHdx3KsZiS7OJrb5jJuQ1pXNsAGzfKGJje5IHe+0P4NY7oU2vFXOutkUljZJ5klJBMq6Ewvjf15vnL5jbueXkHq1plyy3VzVo6FE6o8/nM62ZwZl2Ccu1EMFwYX7JT0l2i6aFhEILMXe3CkW3XZWsOPvVgM0s3dJNzRRNP7mMpLnmqw17OmZTmXWdO4pTaNBV6FQbc6roeCR+Zm2K+gyqORu2Ppj3YODnKE7M5F3LXkq3cs7KLPtIEtskHSCZBnEa1BBeEzK7MccuVczilJk0iptLL1zIdcybrEP98qPTmKHQ5igBhJIBgOCkKC9TZUXquou4TuddWQMa3uHdtKz94agsrOh1yQnK2Q2rcDFfPq+eK4+qYVZGkzgmRHi8BlpbcZ0WHjv6fkA4l4JIOBfUnUaAckg1DntmV49bH1/F8e4FC4FIa5Ll6ejmfO2cak9JiNDdQshvq2xQBwmuzbB5DACFqq4mq7VIjtSyfloLF3c/s4L9e6GS3ndbUWDJMkg59fLuXIGGRyKdIBQWOq85y45WzOak6ZVrRIrMeTcYK+BhhwTvQWywVaO1WFwEefUg97U1e1RPwrUXreXq7tNUlyDvi1mdRIv6OToGc9t4HVIR9vGVuJZ8+fRyNKSPkM6BrFiV1R4LyB/oljoL3axpeRYmMfr3S94TLEjq0Zgs829zK01s7WNOZJUsKz0+ytStLS1/I2FTAxxZO4k0za6gIJdKKWAZqA23IiMoIGcE9RktjtmzIlsqG/1qiwD9uZXvgYDk5bNHucHJcMiHJB86axJy6FGWRVLPxf4giSQUTcUnBGI7pNWj/u2BqiQzlpknWQgC1wws9ITcvWs3Tu10yjvh7yDG+bjyub8pU9Yk+PnxmI9fOG8MYWzYO4foYIps5m1iOG35FMYNw6B4KA2jN0hSPtdwfcxsMIJRjpDX3d2taufuZTWzotMkmpHsmwaxSnw+fPY43TK1Q3oApOxjAKH8WMBATDrWjR3NhpjwVt0r2hHDvup3c9fQ21veWEAQ2M9I9fHXhZF4/pU6zWZLtHO5VBAiHbo4Md+ZjBiAYMTulJirJSgViQ5/HW3J860+bWdXhkEtIe2NIaRhw/PgK1m3dRptdjhOksD2bCquHt8+v5mNnTqAuKixop6Ap9Kofw6F8qW+gcihkA5EHyqPNh5+91M4Pn2llRyFthGcsjyqnj+OmNPHX5jY6feNCKXHs9DKPL50/kddPLMURO1bd4MzGJC1Hg/jjh/KrHNHnjpry+k2aJNUuo7i5M8NT67fT6oVMGFvP2KoySmxXCXtPbOvmJ0uamT8uxRfOm8rU0oTR0ogUhqRUNCAjEMsqDzFMGuXLFJBOGonWHNb1+Vz3uy0s2ZnFT+YpDV1OG2vxifMmcUZ9GWmdF0ZK2XBvTGQZEyDjlsgYIPSDAj1e3ufrvwQJOnH55fLdfHfpNnYgAAHNssl5E56jUji2lefUepePnT+W85tSkmvAiwym4q3AiJQP/SqWGA7SY2Ie7n55K1Pzl4hfAILpghKg2+KF/HljB//x2Cts9mrwqcLN55hd1suHzmrkslk1lAq5NDS9TpojGFQ2iq82VmAUcKkBTQhbCj53PLOD37zcQV5CF7+Tj5zawPsXjKfMjmHF0N+3CBAO0lzYx9MckwBBWd5hSIdlcccjzfzyxV4yonlg5wmcDPNqfP7lwtk8tqKVX67qw5NKmagShh6zqgt89YJJLGwoIyWpMSdSnldDkkMLELS3XFT6Iv6AbEtLW7Pc/GAzy3ZLi52l9UDH97hqdgn/eEYTdy5axrLWJE5YonVkYbL/w/QyvnTBRCY4NpYTY31ZLIoAYVTPT0RSlM1VxlT0CFp6cjRv20lNdRVNdRWUquWtROJmI36qLc93Fr/I1SdN4m2zxuqGreBSo3cpF8jZHJOC181/uLkkAEE2bJO1Emixq2DxtcXb+N36TrKuRyMeX7lkKldOqyQt7boqajTISy/KUKg8c/QaEI+OFTcEkAoJTQoIkjEr4IbCV3BZ1ZXnhgfWsbTDI+v7lFo2jY5PXUUlPQWfXZkcfjbkuMYkH75oGueMTaoaqUBz1YcUcDpCQ+1IBEW57GKJYaQZG+lyagxjVDhNeGRCJltKBBHtWoIjmcu/X7+b2x/dwNZMCbhpQt9nekmOz54zgddNL6fcEvdH484oQnEmI2ReksM0WaJBGdUA+iz4zeZebrhvBe12HW6Y5ZrpKb500TTqXQGUw3cxFAHCSPf50Pz+mAEIxi8ncrGzbPJhwJ+2ZbjxvuVs8arJ2y7JwKc+0cu182u49uQJbOrz+MYfVrGqPUXeSupiXG538+ZZ1Xz8jIlMTEnt2JQqpN1x+HjoYNxAs8RrdjuEtsDie09t48fLdtEj7WeqmOioDvrnL53AgjFpfruihf/9eDO7/XJywnK3RFs/w/XnT+Ft06twdSMylim61RxqjHMwhuG1Pkc/QDA8jlxg0ZnzSCQcShxLnfHkpZuhJxu5yzNtOX65dBX/fNZMTqgvGyAlano+ygppaSEq0o8kPSutrRrNSYjv0VGw+NYTO/n58lYssrxpdhXXnS+kWrkSI2sct0AO3ngHmlb2XKB1GkT8CCPjLOWMyD3Cstnt2fzgqV386LltBK7NaRMqefdpY5lWW0JPzmNLRw+vbO1g+fZdmqm7/MRJXDC+jtq0kDVNCtpAhP1/FcHByGNnOEvSdmsSBgJE+901o+dd15S4o8sJ2B3Ava/s4j+f3sz6TJKMnSYZBswt9fnMwqmcN76USs2cRiYj0WUYye4B4+bI55YwDPCsgGVteT7x3y+yyq/DdgMubfK4+Yo5jEs4SmAd7jXSTCnOhZHnwv4ccdQDhJh5oJtgpC4nznfrewt8Q9i1La5mD6S8kM71cuFYh09fPJUTatL0AD9ftpMfLtnNriClsrcheSaVhnx64STePLFMdQZQCVGR0N37cjeQOh75Fpn63d5f8rBL0k4iU1Hue3BXjhsXrWOdFPn0AXeotnyuPaGKD5w5lnoX1nT63PWY+DRk6XJEHVJMWnzOqfW44XLR1k+SMruBtn/aCnSKr+FGYLA+gRk5S70YlHcXNY9BZwAAIABJREFUlZ50cxXwGAQatf11V5anX9nKW8+cRrVgzUicyrzbbOJG/n60pllR10OUPl7bXeCL921g6e48E0pz3HL5HBaMLScVTSip95vPilmur8az8awzVxN7IZi/xRHnwKiIvPfv1/dwx1/WU5HwuP6y4zlnTIJURHAUj4eMH7IrH7J5dzftrTsZX17GxLpaGqpLxB9VpZpHBtV7f6aKG8LonlFzVwUURMXDKOMUtzMbKk3kOCouoNIVZfnsLvj8/pU2fvh0M+szaTIkSeNwYjrko+fWccH0aqpE08OcXXkJChBE0yAi7vaX4lTW22d5R55P/XI5L3v1CmrPrc9y69XHMzlh9atpDvWtigBhdPf7YB91jAAEqdZLv7epv3ZY8OOXtvK9x7bTRg2hE+IlYExuN19aOI2rZtdSYxvb2xWdHrc/uo1Ht+bEAknbtVKBx/njE9x46VQmu6ERl7GGnsKjBQgjHSePmeFOWDTnA76+aB1/3pInJ85+Ys1LwCl1Np9fOJHTG4RIiXY4LN7QxY0PrmWjVWPIRb5FddDBe86s5yPzJ1Ebqdl5jocrLZwHFNcd7Cl6+J1v9IqZhjku5azVu7Nsbu3hguPGiMuHLqoH9OovGRgTnvvW7+amRc3s8m2umlvBlxdOoVYNlwyHwPgmjP4Vb8AmKIwTyPH7jTz5k7ty3PnnlcyfNpYPL2ikPooCbXFFlfp0f4ukRV7SzDmRmLaoSovhkxAXTffGUCBhBJ7m6L9M8cjhR0CBrWjDGKtuVWzFo7XgcP+6dv5zSTOrM2nyYSXpgseJtT2854yxXDGjhvKI5RyDBENhHDBx1vOJaJYV8sSuLJ/+5Ytst8fiBnnOGlPg5qvnMEX0FIokxcNylh71ACFe3mSRltYbmf4vtGf42kPreHZngsAtUdMj18txkYgJ/eNcJqYMi1s2027L4r9faeXfHt/CLq+SIAxJeFARdPGJCyfz3uPrkTPIwfGSf7Cz9PHCrga+VkhfaHPPmj5uWbya3XY5ec1Me9QEXXz4jPF8cP44qlWK2VaQs70A31q8hl9tklp3MtJSLzCrpI9vXzyTc5rKtEyiPfqmu/mwnKyHy0WNDBBM3iqO2WXObG7rIxM6zKhLKHv/gDM1EUCQT+kI4ZYnd/DLv+7GtQp88cLx/NOcBrXzVjlulbnYt3u6J0AY+D7mCTLy5Ku68/z04Ze49KwTOKM+reRe8zHGhTLQ8olCWqM+qgRh6QCRFuEIJBUBwms/rXUuRQqxur3LOpBXWNiNy31rO7nziZ1s7islENBn9zCrwudTZ0/m9dOqqOjnMEh2M4a+A8BPuhlaw4Afv9jKfyxpoYcykkGBs8f43HT1bKYkTefOcDO0mEF4babJMQEQFCSEHnkLOvIWP3l2O3cv66A9qFSVOSfMMSuV58uXTWNhk6TcTardCkSyNuCVvMe3H5RoPdRyRNKHlO9xXKXPzf84g+OrE0oC21tMuL9gYW8Pi6BxIYsJQewbD2zgmTbIiuqjsICDLGfVFfh/L5/LvDLRuBc5ZUn7+Wrm9NSuPF/+w2pWZUopOAndOCql7XFWmo+eNZkxJWLrK0h+3zaS12bavrafui8AIaLksWN3J266hLpSiZrNvTmgV8RDkQ13awDv/dVyVrQ7zKyy+bcrpnJ8lZh1xSWPqC0z+kDTWDn8a0+AYKDOgFmCbCcB2zI5li7fzBnzpjNOswKGLR+DCGVoKG8h4v6o4qTxhdB/lWQ59JUUMwgHNENG/WYzn2N7bdOeaJw3fKRUtNOzWbymk58t2cKyngSFtHjU+MxLB1x3wSTOmVhJiXAbNEsrM97cZ6PM6qvj7EtdBW55eAOPb7XIW2ncoMD59QVuuXo2E5NCzx2+tFkECKO+nQf1wGMEIIQEQYGc7fDE9gz/+tAW/touinMJFQQpCbt499xqPrNwCuXKSxfylyx0YtUb0GeFLNrcww0PrKbZqtXNNekHlFk+/3xiBR86o5Em19UWwyhs7F+BDwgg7FkWjoiJIT96fhv/+exOWinBt5JqWT3O7ubzF03mjTNq1DFNozhRNosW7F4sfvD0Fu56ro0euwLXlwXAY0p5hs+cP5lLJldTKSp6I0ieHtTZd4SebGSAEG+ohv4p9yGTyeK4DqmELqMjbtAjbN8mQhd5oiDk2bY+/uXetbTmXc5pSnPbJZOZVGbsvuNMxuiueeBT9w4QFAHoQbKJdGZzbG9pY0pTA6VutNmLCqnRSuzPocSsin7ooJ0agRGDGgapFAHC3+cBicmF6u0SqSXE+gkyf/JBSHc+YPGaVm5+YjtbgwShnaTE85lX3sd7zpvCuVNqaXAs0noOw2ERZQxRpd3SF/KL57fwq5Xd7PLK1QJd+mIW1uW57erjFCBIkXS4VxEg/H3mwqs/5ZgBCCIDuzN0uPGRdfz+lV4ykoANLRwH5tXl+Mp5kzinoSKKuiRValq85BiZ8i1ByJ2PbeQnq7L0Sh+wlddl/riKkOsXTuT146pJasvgnt2OBwQQBuENjcECeLK1l28+tJGX2xyEbCnNZ4kA3jw9wecvmUqjI+11ksJF++8lAjD/wMtdWb66eD3P7HIwlgEWqTDL5TMquO7cicwQVzY3lk56bSbkkfCp+7LZxvdfvBOUxKjRmknB7//LzDO5t30h/PrlbXzz8e34uFw1u5ovnTORhqQsuAOfYQL1kfIGwwGEwVerihxk8wXy2RyVZaUmEaAkXlPFNjPOSDlHT4WeQMV6VIVPag3Dd/4UAcL+z5DRvzOqu0aATu9dVIvV+6YaGHK7fJpz8PF7X2Fpm7RLihcHJOhlZlXIFXPruXR6LdMq0mrEJQXLTi9gfVuO3zy3kYebe2nxKvEtIw0mahlnj8lz21VzmaJtjsNfcREgjP6OHswjj3qAEC+ReT/k/u09fOGeF2hzJAuQVEZ/tdPDB88Yy7tObKBWywSyFZu0qMm8OUreEX3xFb0en7t3FS+222Qc0SNwqQgzvGlWNZ89exIT02ZRjlXG4hu1r1vB4GdFK7jR4t7uB/zb0mZ++mI7vVaFGq44Xo5ZFfCNS2dwTqMIoUZLsnq/G8qQdjhY0BOE/Er4FE80sz0vHQ1J3CCg2u7luksm847pNUiz5Oi3kYM5FY+cc+0LQIjT8iYijxu/DsJ3lTZHK6TNt7hrySZ+tLyNBA7vmV/LR06dQK0TM0kkzRvN5WjrHs2n/20GYU+AIN/G9+W/wUDWSSdOnEEwMaQpKcQZk7inyJQczM+LJYbR3I9Dd0wkjSXlSOlg6M+eSleTlIhEAtxIy+/0LD75uxU8tMshtJJKfvXsgJLAp5o840p9ZjWlGFtfQW/OZ1t7gY07utiatemxSvU9EuUIH0Zsz8+IAMLUIkA4dLf3AM98TAAEISiu7yvw+T8s45nWBIWwVFUDJc11XmOOL188g7nVKe1NNwpzUX+vUawxFbnAo8ty+enLO/n+0hZavDKtrSWsHJPSea4/byJv0g02ljUdiNf2FyDEVV8BCAXgke19fH3RKjb0pfDsEiwvoJZe3nVaHR88dTxj3AFN8zitK1K8GstZZrne0FPgtkfXsWgzKgMsv3PtHCfXFLjpsuOYV5bUWrK28hVDuL0+XiMDhEFV/kjXQNvAoo6CyID3QB9dLX9tLljc9FAzv9/coTr5H5pfyftPmUCdG8dcr559o4N/IwKEyJtB51nEIzBJ4sgAKiqCmKT14MS1yciNJp9RnH4HOEVG+XbjLWKs36VsFXNXDIgTpU7VFKfVs/j0fav4865IcClqnRR5bd8Wk6YA1+4lSR7fFxBRFmXLJBObV80VP0hSUME2n3Pr89x61WwmRRyE4WZmMYMwypt5kA87qgCCWZqMeE3cmCV7fWcAP3lpO997ejudfrnRQ7AcapwePrOwibfOqqVCVAWjwY2VCgdIWWarzvsWL/fkuP3hzTzcHJKxU2pSkiTLRY0ON75hJlPTch5zLtP1ZZT0JK4aDS2tf2uJzICERClEyS3ZkJseWsuizXmyYalev+NlObMh4PqLpnBanWinR5BC28zMq18URcRuQoveMOQPG9u5/ZHNNOfMeUQStTzo5V0nVvPxBVOolYvXxnlDXIqTxSZ1XHzp5jYsmXNAsFoBp77h4AEEM63MHV6bDfnSHzfx2M4sVY7Px06r410nNlEl0s16swYDhNHfvcHg8NVfdfDGPaDbIBvLq0gzgz590BMZzaLhYXMRHPz9njNR0zTOnpJ1lPsYmdrF66GWhGxV6/zkfat4ZBcUwgSu5zGtzqWtq4sODyPE5iZUZTHwQxJ2wgQbhT4mlBWY3lTFsm1ZdmYljAoVIHwnIimKjkzsBBIl2/pdcmMwOZATMxfWP5sjsPr3G7Fj55OOIoBgCgOKhLU+azZocTVdujPLtx5u5vl2w9CVGn2p5XDxFJfrL57I5KSUT4VZPvQCajgJAV2hxT2vtHHHk5vZni3HUQXDkHq3mw+c2cj7TxhDKtLVN5KjZiGUyT1SnU02E63OCm9AOgqkf5iQLivktyvb+PdHN9MSVCp5UgqA5U4HHzljHO+c10CNUcIxYiVDvBQ4hSHbCwH//uQWtYYWDQVPtPQDjxklBb5+0RQumlCGbUe84ki7XzX8B21Mx84jcjh+UwMEZUlf3evzxQc2s3SXT00yy6fPaOLaufVUaIlh9IDg1d9yNNmjAcGovY/RaM5xOI7uMXdN0TQx/JCBMMCAv2j9Ci1aCxYf/8NqHt9uq/JsWaGDz71hGn42x3Ov7GBde5aWgouIaNl2SJUbUJcMObGxigum11FekeSWRatZ1llGGLqc25Dj9qtnMjkp5k9CWI1aYgfkxqK1M+Z2DXLjjRUbo0hQDciKr4M+AkcRQIjKAsqo8fs3ym2FkO89tZVfvNxDZ1gSWTOHpG2HBeMSnFBVUGtnUTuKe8b3Nsrm4ZFarsM232HRpnbaskmSvqvqY6GVoSmV47LpddryKLX92NBEo3jVtI9ldPfyCWqmZFTMpBygWnuBGNy49OLw+PoOmrMpfN+UBfJugaTTxxum1TLNEXscY4wiZeFXV7sHbxQCjsQDYFWPy5PbPDJiGxwYjwfhU1w+PcXnLpzK+JIkdhBgiRNfkIjQgQFfxTzCQX8O9/GEpn1QQPDK3pDr79vAc60BtWmPT57ZwNvn1FP5dwIIw114ESDs4219jQ7vj8wjoGCecSN41J8LC212F+Bjf1jDozvE9yVBTa6Fn739BObWldDnhWzrLrCxvY8eicrskLrSBJNqyxiTsKmwbdb1ZLn+f5bzfG+15lPPr89w8xulxCBtk8YZMl5d1H0ytqJXu+roFQmB9md7+3FBESAciulzFAGEKDmviNJMbMEKD+7McNPi9azpdClYEnkb1znxLVCCVZgnEYpk6EBtdK8AoT9FLOAjQa/r6CKd8I1umBg9yaTVnEGYIOVLpU0W8dgtUdoqh5vEcl1yfSJBI0BCjFTE0lfd1xUoKIEoELQd4jkBvm2T9nzcMG8eLpH7FQbyHuz1wVGkPHUF3VgKlhQk0ojhs5Qe5JyJMM+U8jyfWTiOf5haqy1LCEDo95mQfMbfw3PiUEz1o+ic2kom+vawqjvgM79fx1/bQ6rdkE+cWcM7ThhDlXNgipij2dxH4mKM5hxH0V05Yr+KKf8YqeSBIpHIL0fbtRKebVoL8Mk/rOahHcKJSlCfa+fn1x7PSWMSUTCkbVXGJlzLcLEGhhxvsbIrxxd/u5IX+sqQIujC2jw3vXGeAgTJlsZyzabdMk4NRO2PRsVZf24ymRKUxZbSRhBs//NlR+ytO+QXfhQBhMifLJrhssmKMNJ3n27h7mda6LKEmGhka6xQlOAdfMeoBzqyMYvS2zAbuLjrSQZA5IslMyATXoyRTLAvsrHqkqCbtjwhSd20ffKO6Sqw9TOGnsSGSzzAUlCwoag6ruxKm5yYQsXcBiEKuTiBoxmBgi0uaoHJ0g3xUnKcZCj0WBs7SBmLZyu2e7aptvq49oQKrjsrqmPbhqpk6EpiETuSSe8hn7PFD1AIKEAV1nTDZx9Yy7OtAVWEfGRBJe+Z30SVc2CKmKPZ3IsA4eiYirImGOEuI3EUhVfGV0HCHOEvqWMofPa+DTy8XTKbUO218aO3ncT8MUkNG2JCtMk/mEDNEHIDXS+Xd3t86Z4VvJApwwoLnF/rcesbj2diwrC2NLRREBDxn/Q8cVbBlDvMWhr5P4jVefz7IkA4JJPxqAIIZirGUXxI1gr53pKdfP/pVrrsUim0E6pnghs56HlRx4K0Mkp9fpjNNaqPiSGSIe3ZOEES3ypgOer0oFG8Qb5q30NoFSg4YuFrjtXuiKFAiEx6zQ6YEokCjqhPXM5ttukcll0gDBwcP0kovAN13JMMhnAk5K9DUyHV/j0icoqUtHYja3O+EYeS6yy3crx9bgnXndNItRI3pf0pflDlsw7JPCyedB9GQG6BLNpyLzb1BVy/aC2P7QyoCkI+fGoVHzhtHFWDSLf7cOr+Q4sAYX9G7Uh8z4A5mJlXxokhE4T0epD1hZDoIznW3Z7F7X/axvPb8hRcnxKri1uuPIHja0WgfYBtZdQuTFghAZUADlln1vYG3LZoDSu6E0gvw/xqjy9eMY9GR9Y6s8bIklZi21QlbbVEFzBgq4lczE+QgEwCs4hUrllO4yNRfB38ETh6AILxc456GEy6XTwKlmzt47Y/rmN1N/p3sTuV9L2jRjKGRGiU5YffXPvJO5JFCCJCY2CTS1gUpH/YTmtKTRnBokioDmm9+J5D0pbSgXySN3T5XlL8Ai98USUHzw7JONK4ZtC7ZCYEHNhBLwk5VtqI+rXv5eROlN4bJoUQtaQpfU03elMCUVV8UYcMfaZWWHxi4WQum1pOUh9CyVBEzWqxGusBifwc/El8rJ3RFJFMS+7WjM9X/7yG+7f7lIUB7zqplk+cPp5a90AoivIsjIwEixmEo2DmRV1KosaatW3apRTQ2sdLzR2sam6nuaWdXD5P1oYMAbsLNWTdEgq2ZF/zTLFypL2MzkXT9CS7euS5Ea2wsiaKqFc+kWS3VUOHn1BjuSq/j7FOlmSYww/ETtyiLJ2mqb6aOeNrmD+xgnljyqi0ZW0Sy2oRsLPwHVMOUfM9WfGVQF7MbB6K2XjUAYT+GppvaY02E/q8sD3Lc1u7VChIdkbFmqFE/GLRLLkAKQ8MMHb3NtAxR0HSca4CBKMr0B06PL+1k5faBCVL6ULqaVCZCDhnZjljbYsKqe0Jt2BQje/Vn2HQthyTJB/abMsFLF7fTZ8negQCECwcP8vcypAFE6uokg1Ade7FolWeTBc7EN6F4P8hXloOMSULAwqMYqR0TsijVmbDyZNqObmxhHpbShoGqUsbpAEVJjIovl7jERjIxbLbh399fBP/uboLx/K4clolXz9/Co2pA5NzLgKE1/ge/70+PoSCL4ZuPk+19PKHlzezfFeO1qxDLhBf8gQELr5jEdoCEcSsyQRX0v0kngyy9sgGHZO8TVu3WVP6dVw1LpOfJrQkKuBC11FdjxxNmrqhyL+DZ4nwcoHGRB8LGhNccvx4Tm6qYELSJS3ZDAlYLBs3aq2S/4vbuf9ew3asfM7RAxCiSLu/9dtk3MHO48sGi5AUTT0rVv3WVkg1lInqX8PedZPiEk6AVsA0wvLJBiH3r+ngu080szVfpmUB8UIrdTK8+/Qa3nvCWMZakfp+9Pl/a54b2duorKlFRxDy8+U7ufPJnfSFad2kE0FAndvFRxY0cs0JjZS7kf96lNpTbsJejHlf/ZXiMoOOQ9Sjb1pCDVFILjGu82m7pZ5Afh6PU5EK9JovDjL1vJDQtei1LH7+Ygs3PbGDvGtxZl2S2y6dzjTxYtB7JhNj39OvKo7z6n6VAQbbgNTRoAdOClWG4xMJdo0iC/Gaj+URcwGRvqtyoOQ/opBp9zvU6pas2UDJ+sk2bhRUjehZJJsRdUdpzjAC+3ngpd0FfrWynQfXtrMtZ5P1PJIKCMTnRQIPs/lbspYK30rvcVz2jInL0UBGfCZzTFQiiKSXdPkLbEJHuFB5zRiIGq2vNcy4hVEcaEVYSaEEKSvL2NICF04t5x/nNjK/NoVrSdeWGNQl9H1xAGNSGBJkJaKgJxJ6ii4tVncwP41s0GNqY3FZ2+uTcNQAhKEjnnhVGzCGGaDADIzJ8PkDs0lG/YMa0ZsKmHgremzKutz+6Dp+tyZD1k3pBBWHyJklGW6+dC5nNaRVxCi0JSKPSyHms81Ejcg5oZzN4q+7C3z5gXW80GXSaZLmT/sFLpwIX7loBrNK5cEyjoCyCcTMAnPGkSP8Qev8Hu8oPiNHyG6h2DQgdG2ylsWSHb186rdraAtTTC0JueWKaSwYk9YFVrVAZOMWRrlBzIa/EMV3Q31jkzE2xxldjn72b79jo/mdWWhl+xJwrBuJLtr99agjZFAPz8uM+/vl3mmpEegJYVuvR3uf6S7QSD1eVwQMhh62Y9FQ5jIpbVMSrV2xZLuG66FFNgx5tiXPD5Y282RLSG8AniuurnmSvkepFSgXoL6sFFdLs/EqaebCHmqbpnKr68/AChRRDGN9mYEJ0y/0JW8KBOhIAOf7dPX10ZXx6bZKyTppRAU3EeYoC/pY0JDk/edM5YymUspCX7VrtANLCbsm7POCAtvzCbb0eGpiJ2u19qgpWAmxde5bVJW6jCuzqZUR1F8eGKn38Jw9B35VxwBAiDbiEWyM4w7/IYdUJIs1RW+IkJp7kMxAkCMXOjzamuNzv3uJrV45geiUSxNh2MO1Myr55MLpNAqUd0R8yKTR9mTnGtMl6Y3YVbD5wZLt/HR5D23SMqQdBw5Ndh9fu2wmV0ysIB0txlKD0w4EnfTmAelfyA98bhTPcDiPgK7CFjkrZGMePvqbl1jRZlNpF/jCJeN566wxlCrxxRDEVBw3slsWAmwUQw39DSWb1Q8ATNSqWntRFKr0Ve2yieKxuLtGNgNt5BFmvIEhxdf+joDSBs0YCsfI8ujD4Y/rOrj7MXHvlGg7ChQk0peNVonQnqbz59Un+OiFMzm5JmnaCKUMEHUVZEKb53b1cvPijTzXbeM7JRBmSNLLXLfAqZMncOacBsZVu6rKGemw7fFFdDmMr3DQbY5/PiT4fNUvdD0MNSlGzg/Z0Z3nwTU7eWRDO1v7XLJa6rCoJMdxVR5fvXwup1UlSYW+AlHz0TZin7emK8NtD7zAK12y0oobrwjqmwjMFlChmRaHunKLt589ibdMqyYtpVZbGGDFufrqe1YECNGIjBYgGERvYivhODiBaS/cbSW464k1/OyvfWRkKgvitnuZXupz3cIpvGFiJWW2Ng1FUX9c6DBwQyKBHD6P7sjy7b80s6JNHugSbN+nhD7+6aQyrjt/KnXyUGjKWBQMzEIs81oBgm4aI2cQ9ne5Kr7vcBoB05Ii5aEOQm5/eis/f6GdQhDw5jklfP38GdRHdspmixEmuLTyGkOyCDaPCiCYrIABA6rUqWluszsY7o4hyOKJcZM8FAKe49a5w2nMjrxrsbTbSDPzuvHvKDhc94vneKyjiow4I0bdLMI/Uk8FCUC0m8mlMuzhg2c28PEzxmrt3qTxA7Khxbpuj+8+tpEHtkCPbVPqh1Qnenj97GqunTOW6VVpylU2xhSOVCh+Ly1MscuGCXribObgcR5prkXhknLBjNiBzKmuEF7uzvOzZ7fy6IYcO/MprIRDCVnObgr44vkzmZt2SEiA5JoWy05cbn/4JX65opdWqwbsJCkf5WgJ00pI3aZ108K2M1w8Jckdr5tNg2CviLx+5M2QQ3vFRYAwSoAwOHFmonRLHR5VQjkMlN+wrtfnq/e9wnMtSTKOET1KWFkun1bGdedMYmqZixvV+GMREiPoZFKHLXmf25/cwj0re8iI53qYpNS3mVeb5SuXjWdBfSpSHDM21LrQR/UJjdZ07S4ChEP7yBweZ5d5p9VgS+heIX/Y1MUNizexreAwtzzHXVeeyPFVom9v2sRMbTqqkkVzZbhvErcMx6lZ5d9gaetb0rFJRZkrlbSxbHZ3Z8kXfJqqyoyLc2z7U+QhHNiEibOWmgyy2Ji3ePf3H2KtOzmq3UtZp4DtFLTE4/iWcdlMuiQtj2uOK+fGC5rUcVFWDHFfbPXgZy+08aPndrNDNmSnwFQn5E1za7jm1CbGJ0TjRdLx4ucRgcK9RtcxQ2lvwGD0wYoCEFFzVZ0WAxCswCdv2Wz3Lf7nxW384qVWNmVEZwbq3IB3n1zH++Y10uBC4BgQsz1w+Pofl/HndT69Vhme42pnlmg2CDgQZVhtT1dhPI/5Y1PcdfUcpiSMiu0ISeYDu49H6LuLAGGUACHed5U4qxGU1FxlKhumv/y8Owz4zco2vrdkF9ty4tEgrYh5xqWyfPq8CbxxVi3ib6brZz9zSJgMIRksFm9u45uLN7ItV6kdFkHgMS5l8a5TKnjnSbWMSchiECWH+8lApuUyyjgP1PaO0AlZvOzRjYDMQWmv1ZRpCBv6Ar7w4EYe3ZqhLMzzmdPH855TGijT2rD2rMTwwHAKRvoY6dKJEEVMZm33Qh5bvYVpjWOYU5/GCQNtyy24Fs+s20FnNs+FcyeSlCSCTvGYHTfShxV/P9QIGCEg2dwNyFudc3jX9x9iY3KSap9UWQVOHVdOZbpAENi091g8vy1HJpEkic81s8r55oVNlAXm/QUrZFlXni/9diMrOy0yyTxVbp5/PrGB95zQyMQSyUxGJMZIdVZXl71OmAGA8LdhyVCg4W+/aVzu6k9QRH+QpJS42O7IB/zXsh38/K+t7MqlFLicUm/zxQsncFZ9WqGyzLWWwOEbi17h/lfyZKwkJS6cPjVJaTLE8gMKBYvHNvfQI0ZTQciCxiTfvWoaU0TJsd9irzgXB49AESCMEiBohG5cT6OUvjy6eSOPLGqEhPT6WTb7B3w6AAAVcklEQVTlXG5/ZCP3r8/guyVqjiTFg3MbHW69ci5THR9ROlD/BpVONumvzZ7FZ+99liW70nh2BWHg4fgBZ40p8NXXz+JErSOauq++U/uQtd8gUj+LKnHFiO3of8Kj9bpgG1U54Rb0BBZ3r9zJfyzZRo+X5IwxNt+6bCazyoTIajgEJvNlul9GAxAM50DmqNHJX96d4fuPrmL+1EaunTuWEqlrBw5dDvz30lewHJdrTp1ChS2fEmvjHf2345B+w7jtyJLSYsiKvACEv7AlMQnfLjC7tINbrj6NaSmZFA5Pbu3hq/dvpN2q0BbEt8wu4VsXT6BUVeAseoA7l27mR8920m0nCe1ezm8q5yuvn87MMoek+K9Y0rUwYAU7MFuGyk4O/vneZtbwWU1DfRxEnI0yXMaX18ILLFb2+Nz60AYe3hyQsZPUOj38PwvG8C+nNJAOPQLHodV3+OriNdy3JqfOkpPdHHe9bR7Ty40uTWvB4d0/Wcpavw63YHHWWIc7rp7KhLSAotG57R7Se30YnrwIEEYJEIxQkpEOlTSV4WJF0sOqrqjUcrpxWLShg+88toH1fSnyiKVynuogw/tPqeOjp0+gyhFkbPwWxKSk24efLW/htsc30OXUa+pYpJrr/QIfO2cs7zipiaqY7qV5MEnFxZqR5rr08dLsQrHEcBg+Zwf9klQ9M9LVFnKaj8+TrX3c9MhmXupwKQmyfPys8bxzXh2VkmmIatWGXGtYCcPCBNXUiABCKPRZeGhbN7f+ZS1nTxvLpxeMpUaoB6FNcwjfuvcpTpw0nnecMp4a3SP2XrM+6ANxlJ9Q7/Og9uXlhZD3/GAx253JygmZXdbFd/7pNE5KGm2Wxdt7+MR9zfQEZSStDG+aU8JNF06mNGoq2ZwN+cg9q3hhd0jeCRlj9fG1183gzdMrFGjqCiI6BFKvj3qn99w6hxNiG4qUOnw2QVYvk/zXgq22UJqOiUiqOQjo8izuWdfDjQ9toj2sxLHzLBxT4I6r5tAoh1sWrYEBCJJB6HPSTHYK/PyaWRxXLWm0gBbf5qq7l7IuEIDgs6Ahwb9fPZ3xJYbiHbPCjvIptU9f75gBCCarP3TcNHKbo5xBal1CHnQ1ojITOPYpkI4GsWe2aS74/O8n1vJfLxfIOeXKKHZDjwmpLLe+YRpnjivDsWTJla0+wQstfdzwl2aWyUNrS39xQCrw+YfJNtdfMoupaSfSKJCHNhY6Mv3mJv0XKYlpX3ERIOzTE3CkHqxRlmSRokUdjxYv5O6X2vnhc7voCxzOrHf5wrnjOK2+FCcSmtNMQqRqb9rjogGIZLj1OYla2AZ+JSLf8OtVbXznsS2cPr6cb7xuEvWu5MYsFjd38m8PLeeNJ00zYDYy9zEtZWaWvxqMmIhxxDzGkXp39vu6B5dlZOOU4kJWW1UNf2Rl3uLD/9+j7LAbCZyAOaVd3PqWBcxKm7Xgoa29XH//FvoC4SvleeNxlXztgiZKI3OvF3bm+OhvVtJi1xBYWU6usLjjLbOZ4ojWieG1SLijXaqRTowBk/Fr78UE89vh7ufQ65LJigrgNVzXmEQ7MEPEyyHk5d6QG36/mpc7XTxcppe1c9OVszm1qgwp6O7wHW5ctIaH1uXJ2AkmJHL84G1zmVNhhKBbAotr/s+zbPLLsL0CJ48t4ztXTmNySrJwhqgoHDE5l35jTbrEeYxjc64eUwBh2Kd2NGnXQezvwdxc8+eouyG01STq6ZYerrt3Ndv8EgqhCHc4lPlZ3jrD5SPnTWVCiTJnaPUsfvhUMz9+sYs2qxzb8tRhcnxJwLcvnca5TeWk9NmT1J9KNO3la5j04WjU7/Z75Sq+8bAaAXPHTV1ZeAjSUeOFNi91FvjKn9byfJtFtRXy5tkVfOjMcUxISYutUc5UNrt6kgy0xQqw7G+9jfvWYyscy5QwfvTiLv79yZ2cOtbmW1fMZEzKYW1XgW8vWsGyTou3nzqB102tIC1qniKNGwRUpxM0lCSNJoMpdJhkXBEgDCCzaP0wmhKSLjBkPdE7eGlXH6tbesl7vpJRt4dJfv30FjqoILDyNKV6edPJE2lwxKjNZnVnwD2rusiI/wsBpzWluWRqKSVhXuXa17R5/GZFK31WhVoozWso46rpSdVKiOWSFUv2uyca2fr+1yHYJ2OQ2j/tXvWkScAk+rCddpoHV+1mVXdIFpsaerniuLHMLndIWiITneTe5dtY2xGoOF6tneMtp05gQmlI4IV04fLDp7fRJS2hnseE8hRvmVtNrZRrRWq+NMmMMWlOqS+lPNoPjCma6eI4BF/9sFpT9nYxRYAQP6YHTGE1iUBfLZuhPQi5+/lW/s+zO+gORcUxqRmIGaUFPnVOE5dPq1Qy0F+2Zbn1oU2siPp2E2FA2srzlnlVfO78idRFyFx9GBQcDJ0IKwKEw/55O4gXKAt6QKACL4HWaR0rpMf3+P2mXm55cD27vHKqUvC+02t557wG6iQ6igWQImGbOJ9gfPEMSBBNDsNZkGXZpJw7PPhfT+/kBy/sZm6Vx81vmieS+/zkqY386uU2MokEM9MwpSQkZedIWR51paWcPa2JhTOaKAkLKt1t9D7i5puhyG8HcZgO81MNtAdKxO4b4aPABBlPbOvhXx/cwPpMWjpItaTpORZZUhR8URHM4lp5ktKiJ2uPlIVEGEh+J7G4ncC1Q1KuRMgeQWDOL/Lwlm9aUYXIWOpGBFbhs/QXnwyQM7LJA/nVobI+Bz9vaSBwXNjVzIIVUvB8XUs9WzQOjDyzq3o08neHnCfkWsmGeOpdk05IN4bEVyUEAao8agV5zejavkVal9SE6QBNWkxK9XHD+VNZOK5CV1uj5jyiashhPsv2//KKAOFgAQQlgEkk52j9TlJ1ImBz/T2reK4tIG8ntG2n1M/wuqkJPrdwOuVJh9uf2MT/vNxBr1OOK5LKfoF5VQHfvGIG82tShikuNWT1TZDHZRi3xiJBcf+fhCPsnYZDFkZGWgaYijQMYY42K82tDzdz34o2WklTU+LzkbPHceW0ahoTopRn2sKMnsaAZNdAltjUf82ibwBppxdy15Mt3P1yG43lPh+8aAYvvLKDB1e2kgmTjEkHvP3kBs6fPoZSx6LU9qkoTVBiWaQiaXL5vDh7EOv2F4WUzCibpEqo7dKiENjn+/zw2c388NkW2qgksEuiTFEB3xHvAvEikKyBp66ueY2yTUdLQlsG5c6J34x0WDkRZypqJdSWRwFnZj3RDTAK3+MVRvUuopDZj1QaBz8ig4GCshIOKLz+W3jRL/Ud6W4ItJHsl2TL1KpeHW6lA8zDs4TRJVfk4vguthjbie6DzGEZKwVXhtSt8FRKs4FPGOQoJIy4lGQI8naa6rCbL86v5QPzJ5ISOWu5H4PTxUfYOnGgl1sECAcNIJgHXARNdPELoS8I+ZX4NCzdzrasbPQJxGa5wcrynvMmUF6S4Pt/3sA2X8iMgoZtahM+H5pfx3tPqKfKdbDEylQjrv72iSHveTGDcKCPw5HzfmO2JfNNFk1Z7GK7cR/PclnTnuPOJzaxaItHl28zNZXhqrm1XDG3kdmVSbXSjRu/dVPQ+WU8NwaWazPnpDK9qwDffWIbP3m5G9txGVMasqvXI4dLmePzzvn1vO+UOmqFvGuFJCwpqsmZZHOSVmCzCZl9RNQ/47E+oJ3lyLlhe7lSLUqKeVw0NtolpZttiB96PLipgzsfX88r3aISKDAryjLIphXYuL4Bd6KmmLdlq5RNUX4uJ5HuFZ/ANgBBddvi7FG0o8e5SMM1GCChmEBkwJ/GGlxiGOJ7HBhAUHS0x5lN/sC8TOhlAIt8BzF5MrTwgLxVwHOEomuAVUJ041TVy7Rqeo4oJIp+Qk4BccIXgCHZBhmkHPmElH89koGrrY/Tyzw+f8EMLppcQyI2uJH7oxdz7M3VIkA4WAAhmsn9JEEhDIYBazMFvv3YJv60voe8Va7lPMfLM62hjITrsGZ7N3lRlrEgafuc1eDy5QuncHKViyO2qVHpI1K4HXZBLAKEI3q/2IeLj5ZPYbjbxgVUcqSyUcTxaM6Hp3d2870lW1jSAqEfUJcIOKUpzWVz6zhzUhV1SVs9QsQ+XDZ14zYab+Txgm26GVb3Bdz4p/U8slUS3S6u6H6qjn6CKeU+N141hQXVDqWBAF1x/I3puwYQGKnguMfGFDLMgnvsLbqDb7QCBD/OrMTboezkAW0eLNnSxeqOjKbGJZJX3wtVTIw7lgzzXyLseB+X0pNmh6JOJ/l97MURG7PJvRN9C9MtEGtWREwqRS4RjVS7tUa+RyMfMdz0HkWBInJu7Dda0syCeC0YZVrtLJO232Cwfoc8HybnKh0fcozJBhhDKwG+Mh66boYOFXbI8TUJzppQTaUbZSmiOXusmkkXAcLBBAj93bwR6g0C1cpfvKmDmx7aSHM2LVhVSwbS8eD7gdqoiohHwvKocT2+dMEE3jizlvIowosybFGEN/x6WgQI+7DHHtGHRvwDSR3H1D/dOCJ4oPrzFj1+wFM7+rjjoU0s67HIWylkBtaUFDijyeW8qfUsmFBLUwIVlZF9QMiOchaJu6Q+LSnsPivBoi293PTHNWzOV+OLbr2dM855oUsdfbz3jPFcMKWaGr/AmBRUlydxIqGdiA5uatoR/6C/9n7A3J8j+kbqxUuELhuZbGKSQlczOAFUIeR96WwKyUp6XQCgGGFF2X8zhqZcIC2KKlOsJYW4v8pE3JIRiCmoAssEwMnGaISXB0M0s833Syb3mywNv/0fGDgYzf0zBS8trsbOu9HGbSBtHN1H5mJxPkI7MQZ+bxICURYrNhmLsIl8Z+FypDWbkxOEazhfkoGJCrvHYtdNESAcNIAQdTFoH29/B69O7F05n+8+so7fvNJHj1uqHQ1SIwt8E53JnyuCHBdPKOVrl81gfIn0IQtJSNJmps1G6m79z8EQz1QRIIxmsTkajokjSbNganeAob+bxLD+z0EUd8UA59EtPfzr42tZ0WfTE6Z1SykJxDHEo7E8weyGcmVvjylzqEwmSCXTjK1IMjZp3v9yh8cPnljH87s88pSokI6WsEMxJZPP7KOCHNNKMlwxpYJ/OnEyDZVlOHFvZZwoVnlmeas6kmgEe+g3l8P7fptn27SrqvGVtD+HRoVVo101bDNRrq1WApI2N2l0/b2O5yAS3R4NB+YvppQxkLAXXlPctWLeO4jX1J/bN/4bmv8Z1AK7t9E84HuonzP8WSIPsCizEWc+ZLaba9d4KrrePapXshb3p1/3bOuNgaus18Lx0hKx6oQb8mw0S7Wl/VjNdRUBwqAZP5xOwsjLTKxebyydFZkLAziQ3oWQ53bm+OL9K1mdKadgiW5XQdNjYnMqTmvT0xluvHQW541PK9NcuQdxbdBUH0fk0hYBwsh36Wg5QrdWiSolrxw6ZhOJxJAGtA1kfok9sM2Slm5+s2wzz23N0Faw6Qsl+yBANCQZWgjvPSFdDq6D69o0VKVoLHUIfFixs5fmTIgvHROWEHFNN40dGgc8KyzQmMzz/vnVvGVOHQ2SnnWMOp1hwUdUuNg6ZOT94Gi5TSN+D/NUG2Mrs08K0dSwN6JbHG3yxmwr4tiZDX/Qpq9y6/FYazbJcKFMEiDaMl9d2NdfDWzMMbaIC0GDNTKG+yKjKBCMMA6jhBhx04v6zxhEMAAxDedAlT/1gmLuVlSmjUspkY+OcSGNpfLN8eLPoF4QQvIU3oxmdAQdSblmxFt5VB5QBAgH8bYOJrLEz2K8aXcH8KMXd/C9pbvYHabwpEdMsLvvUxPmeMcJ1Xzy7IlUmy7JQaSdY3RmHsT7cnSfamDVH7xQx8lWo3sAfdhs7M6zrKWLdV151rUH7OjI0daTJePb5KW1TkpegmjlX0lT+3mzfTnJfvVQmY3KcbMThJbUJYzq3rRSjy9cPJELm2zRDsW3U0hjb/8rSnUP5qIVjcXi0Xn1zj2wAuzBPYrHcC/7/eAzxX/e15VjACAcaU9MxKPoD6MGPQlxPcYgiv51deBvUWeH/jZq6FRSoskZDIzhvo7mkTaGe7/eIkA4iPdxuAyEdJRvzHp84b51PL69l95UUtFqWd7j9Po0N7x+CidVJwdUDgavGQfxGounOjZGwOghRbwEjdxNMSAfhmT1X4uufEhnPqA1W2BXX4HdvRm6swXy+ZCuPHTnpK8+JJvNks3mcVwXy7bJ5wq09mTY7ZlSmmgblONxXpPNNSeP49RJDSSdhDH9iQlwexn2YsZr3+figWU59/3zjp13jJQHKQKEI3ouHA6LzXAPryy0Qhq7f00Hdy7ZxKqCj+jfTsHiQ6eM45qTxlItOp+xlkERIBzR8/G1vXhjlyvpY1HPM2lsFbONVO+NDoJo3gubXQiNImUrLPn4H+V4a90CfH8QmU3IYUFIrxfQkcuTzeXJeBZ5z6LQ20VtClJhjrE1VUysriSZcIeUOD8cntnX9j7t+6cXAcK+j9no3lEECHsbp2IGYXSzZ1RHjQQQRM5jZw5+tXwHD6xvIed5XDxpDNeeMJ5JFW7U6TyqjyoeVByBYUbARO5RFTbqcY+ZZnFbm2kPU/GiqP7dn/KPWfL9DO89k9bKrRE76IjMFYvaiA2v1sKjWrFwGvrfuZduhSJA2PdJXAQI+z5mo3tHESAUAcLoZsp+HzUsQFDVL0Ou2Z0P2dzVi+cHTKmuoD5lhDik/ejYTGTt95AX3zjECBjSWtz6GDPSZfOOZpgy5o0jjxDk5BWrHManHG7JNDyxWDvBGOyo4m90Itn8xfxmuBldBAj7Pn2LAGHfx2x07ygChCJAGN1M2e+jhneLNBGdMou1NUebj/TPmvqNjFqOxV7b/R7w4huHGYGI6Ba1PxrClQGohqq1p/RLvDya9jfT4jUghzzExyii0PaJQex6ebdptzQmukND3iJA2PcJXAQI+z5mo3tHESAUAcLoZsp+HzWahzemGOxhs6stN2IjXcwf7PfgF9+4xwjEvd+29H3JSysMpu2tXzCmvw1Ow/5IS2FQtmFQWWDARXxgITUK9qaQIaUKVarT7rPhyYn9GYqid8g+z9rRrDH7fNLiG/5G6vlvh+TYXJuLHISD+HCM+PBGa6tRDZVmMVmyjW7CQAPOQbyg4qmO2REwmggmHxXnqmKkMLjzfQ9Mqgp+5igjaLS3Jq/4bKZbPhZ31mM1OxGbAMX69UPfgmIGYd+n54hrzL6fsvgOM+NHGIciQDiiJ8qRtNiYBgUzIWP5oyN68IsXfwSMwN+hy10/IgYIR8CQHIGXWAQIR+BNO4IvuZhBOIJvXvHSiyNQHIFjawSKAOHYut+v9bf9v1Yymv/hrtW1AAAAAElFTkSuQmCC;" parent="1" vertex="1">
          <mxGeometry x="80" y="240" width="644.63" height="150" as="geometry" />
        </mxCell>
        <mxCell id="8awulVqLF0iglUx4eAvk-1" value="符号主义" style="text;html=1;align=center;verticalAlign=middle;resizable=0;points=[];autosize=1;strokeColor=none;fillColor=none;fontSize=24;fontStyle=0;fontFamily=Ma Shan Zheng;fontSource=https%3A%2F%2Ffonts.googleapis.com%2Fcss%3Ffamily%3DMa%2BShan%2BZheng;fontColor=#000099;" vertex="1" parent="1">
          <mxGeometry x="140" y="425" width="120" height="40" as="geometry" />
        </mxCell>
        <mxCell id="8awulVqLF0iglUx4eAvk-2" value="连接主义" style="text;html=1;align=center;verticalAlign=middle;resizable=0;points=[];autosize=1;strokeColor=none;fillColor=none;fontSize=24;fontStyle=0;fontFamily=Ma Shan Zheng;fontSource=https%3A%2F%2Ffonts.googleapis.com%2Fcss%3Ffamily%3DMa%2BShan%2BZheng;fontColor=#000099;" vertex="1" parent="1">
          <mxGeometry x="330" y="425" width="120" height="40" as="geometry" />
        </mxCell>
        <mxCell id="8awulVqLF0iglUx4eAvk-3" value="行为主义" style="text;html=1;align=center;verticalAlign=middle;resizable=0;points=[];autosize=1;strokeColor=none;fillColor=none;fontSize=24;fontStyle=0;fontFamily=Ma Shan Zheng;fontSource=https%3A%2F%2Ffonts.googleapis.com%2Fcss%3Ffamily%3DMa%2BShan%2BZheng;fontColor=#000099;" vertex="1" parent="1">
          <mxGeometry x="530" y="425" width="120" height="40" as="geometry" />
        </mxCell>
        <mxCell id="8awulVqLF0iglUx4eAvk-4" value="" style="shape=image;verticalLabelPosition=bottom;labelBackgroundColor=default;verticalAlign=top;aspect=fixed;imageAspect=0;image=https://openedx.org/wp-content/uploads/2019/01/7562831366_66f986c3ea_o.gif;" vertex="1" parent="1">
          <mxGeometry x="64" y="487" width="713.33" height="535" as="geometry" />
        </mxCell>
        <mxCell id="8awulVqLF0iglUx4eAvk-5" value="符号主义" style="text;html=1;align=left;verticalAlign=middle;resizable=0;points=[];autosize=1;strokeColor=none;fillColor=none;fontSize=24;fontStyle=0;fontFamily=Ma Shan Zheng;fontSource=https%3A%2F%2Ffonts.googleapis.com%2Fcss%3Ffamily%3DMa%2BShan%2BZheng;fontColor=#80FF00;" vertex="1" parent="1">
          <mxGeometry x="284" y="672" width="120" height="40" as="geometry" />
        </mxCell>
        <mxCell id="8awulVqLF0iglUx4eAvk-6" value="连接主义" style="text;html=1;align=left;verticalAlign=middle;resizable=0;points=[];autosize=1;strokeColor=none;fillColor=none;fontSize=24;fontStyle=0;fontFamily=Ma Shan Zheng;fontSource=https%3A%2F%2Ffonts.googleapis.com%2Fcss%3Ffamily%3DMa%2BShan%2BZheng;fontColor=#80FF00;" vertex="1" parent="1">
          <mxGeometry x="284" y="708" width="114" height="41" as="geometry" />
        </mxCell>
        <mxCell id="8awulVqLF0iglUx4eAvk-7" value="行为主义" style="text;html=1;align=left;verticalAlign=middle;resizable=0;points=[];autosize=1;strokeColor=none;fillColor=none;fontSize=24;fontStyle=0;fontFamily=Ma Shan Zheng;fontSource=https%3A%2F%2Ffonts.googleapis.com%2Fcss%3Ffamily%3DMa%2BShan%2BZheng;fontColor=#80FF00;" vertex="1" parent="1">
          <mxGeometry x="284" y="749" width="114" height="41" as="geometry" />
        </mxCell>
        <mxCell id="8awulVqLF0iglUx4eAvk-8" value="人工智能三大学派" style="text;html=1;align=left;verticalAlign=middle;resizable=0;points=[];autosize=1;strokeColor=none;fillColor=none;fontSize=24;fontStyle=0;fontFamily=Ma Shan Zheng;fontSource=https%3A%2F%2Ffonts.googleapis.com%2Fcss%3Ffamily%3DMa%2BShan%2BZheng;fontColor=#80FF00;" vertex="1" parent="1">
          <mxGeometry x="222" y="626" width="210" height="41" as="geometry" />
        </mxCell>
      </root>
    </mxGraphModel>
  </diagram>
</mxfile>
